<?xml version="1.0" encoding="UTF-8"?>
<svg id="Layer_1" data-name="Layer 1" xmlns="http://www.w3.org/2000/svg" viewBox="0 0 50 50">
  <defs>
    <style>
      .cls-1 {
        fill: #464646;
        stroke-width: 0px;
      }
    </style>
  </defs>
  <path class="cls-1" d="m25.6,49.32c-13.57-.05-24.24-10.75-24.2-24.25C1.44,11.99,12.33,1.28,25.56,1.32c13.28.04,24.1,10.79,24.03,23.88-.07,13.39-10.8,24.17-23.99,24.12Zm21.97-23.88c.03-12.5-9.59-22.25-22.01-22.32C12.71,3.05,3.19,13.89,3.36,25.31c.19,12.23,9.81,22.19,22.06,22.18,12.91-.01,22.46-10.71,22.14-22.05Z"/>
  <path class="cls-1" d="m37.95,30.34c-2.03-.06-3.28-1.05-3.69-3.05-.29-1.4-.84-2.58-2.42-2.58-1.48,0-2.06,1.05-2.35,2.43-.44,2.16-1.95,3.24-4.15,3.19-2.09-.05-3.45-1.14-3.87-3.33-.25-1.3-.72-2.3-2.19-2.35-1.53-.05-2.12.88-2.41,2.29-.49,2.34-1.92,3.41-4.19,3.37-2.19-.04-3.35-1.03-3.92-3.44-.28-1.21-.87-2.06-2.16-2.3-.62-.12-1.12-.44-.9-1.15.21-.69.84-.64,1.42-.56,1.75.23,3.08,1.41,3.39,3.3.22,1.36.75,2.26,2.2,2.31,1.44.04,2.08-.83,2.39-2.15.56-2.38,1.94-3.53,4.07-3.55,2.03-.01,3.47,1.25,4.04,3.59.3,1.21.86,2.1,2.24,2.12,1.49.02,2.04-.94,2.33-2.21.52-2.27,2.02-3.53,4.11-3.49,1.98.04,3.76,1.53,4.06,3.61.2,1.35.85,2.08,2.19,2.08,1.36,0,2.02-.84,2.24-2.1.33-1.86,1.35-3.07,3.24-3.46.63-.13,1.32-.25,1.6.5.31.84-.35,1.08-.99,1.23-1.28.3-1.8,1.18-2.05,2.4-.47,2.23-1.99,3.36-4.24,3.3Z"/>
  <path class="cls-1" d="m25.6,17.36c5.65,0,11.3,0,16.95,0,.51,0,1.02,0,1.52.04.58.06,1.19.19,1.21.92.02.74-.57.91-1.15.99-.39.06-.79.05-1.18.05-11.47,0-22.94,0-34.41,0-.67,0-1.35-.11-2.02-.21-.48-.07-.88-.31-.83-.88.04-.54.45-.78.92-.84.56-.07,1.13-.08,1.69-.08,5.76,0,11.53,0,17.29,0Z"/>
  <path class="cls-1" d="m20.72,41.54c-.2.86-.39,1.82-1.56,1.82-1.16,0-1.96-.6-2.01-1.81-.05-1.07.64-1.7,1.65-1.75,1.1-.05,1.77.58,1.92,1.74Z"/>
  <path class="cls-1" d="m31.99,43.24c-1.15-.09-1.75-.77-1.69-1.88.05-1.05.73-1.66,1.8-1.6,1.03.06,1.76.66,1.75,1.7,0,1.09-.66,1.76-1.86,1.77Z"/>
  <path class="cls-1" d="m23.61,36.66c-1.15-.09-1.75-.77-1.69-1.88.05-1.05.73-1.66,1.8-1.6,1.03.06,1.76.66,1.75,1.7,0,1.09-.66,1.76-1.86,1.77Z"/>
  <path class="cls-1" d="m33.77,36.25c-1.15-.09-1.75-.77-1.69-1.88.05-1.05.73-1.66,1.8-1.6,1.03.06,1.76.66,1.75,1.7,0,1.09-.66,1.76-1.86,1.77Z"/>
  <path class="cls-1" d="m41.11,36.25c-1.15-.09-1.75-.77-1.69-1.88.05-1.05.73-1.66,1.8-1.6,1.03.06,1.76.66,1.75,1.7,0,1.09-.66,1.76-1.86,1.77Z"/>
  <path class="cls-1" d="m12.26,33.58c1.01.05,1.83.43,1.88,1.53.06,1.1-.56,1.86-1.69,1.93-1.15.07-1.8-.64-1.86-1.74-.06-1.09.61-1.62,1.66-1.72Z"/>
</svg>