<?xml version="1.0" encoding="UTF-8"?>
<svg id="Layer_1" data-name="Layer 1" xmlns="http://www.w3.org/2000/svg" viewBox="0 0 50 50">
  <defs>
    <style>
      .cls-1 {
        fill: #464646;
        stroke-width: 0px;
      }
    </style>
  </defs>
  <g>
    <path class="cls-1" d="m42.40737,26.91729c-1.62993,0-3.01501-.44112-4.35452-.86761-1.34932-.42981-2.62379-.83567-4.1619-.83567-1.52331,0-2.76817.40037-4.08605.8242-1.34366.43214-2.73324.87909-4.43036.87909s-3.0867-.44695-4.43036-.87909c-1.31788-.42382-2.56274-.8242-4.08605-.8242-1.53811,0-2.81258.40586-4.1619.83567-1.33951.42649-2.72459.86761-4.35452.86761-3.80261,0-6.09888-.82137-6.19486-.8563-.35346-.12891-.5356-.51997-.40669-.87343.12874-.35346.51947-.53544.87277-.40702.04142.0148,2.20395.77413,5.72879.77413,1.41835,0,2.64375-.39022,3.941-.8034,1.38924-.44245,2.82555-.89988,4.57541-.89988,1.73705,0,3.14326.45227,4.50322.88957,1.30092.4185,2.52981.81372,4.01319.81372s2.71228-.39521,4.01319-.81372c1.35996-.4373,2.76617-.88957,4.50322-.88957,1.74986,0,3.18617.45742,4.57541.89988,1.29726.41318,2.52265.8034,3.941.8034,3.54146,0,5.70783-.76648,5.72928-.7743.3538-.12725.74402.05539.8721.40852.12808.3533-.05339.74336-.40653.8721-.09598.03493-2.39225.8563-6.19486.8563Z"/>
    <path class="cls-1" d="m42.40754,27.41724c-1.70508,0-3.12598-.45215-4.5-.88867-1.31543-.41992-2.55176-.81445-4.0166-.81445-1.44531,0-2.65332.38867-3.93262.7998-1.38574.44531-2.81152.90332-4.58398.90332-1.77441,0-3.2002-.45801-4.57812-.90137-1.28516-.41309-2.49414-.80176-3.93848-.80176-1.46582,0-2.70117.39453-4.00879.8125-1.38379.43945-2.80371.89062-4.50684.89062-3.9082,0-6.26953-.85059-6.36816-.88672-.29492-.1084-.53125-.3252-.66406-.61133-.13379-.28613-.14746-.60645-.03906-.90234.10742-.2959.32422-.5332.61035-.66602s.60449-.14844.90234-.04004c.08203.02832,2.16992.74414,5.55859.74414,1.33984,0,2.52832-.37891,3.78613-.7793,1.42773-.45508,2.90234-.92383,4.72949-.92383,1.8125,0,3.25488.46289,4.65039.91016,1.26855.40918,2.46094.79297,3.86621.79297,1.40625,0,2.59863-.38379,3.86035-.79004,1.39941-.4502,2.84277-.91309,4.65625-.91309,1.8291,0,3.30273.46875,4.72656.92285,1.26465.40234,2.45117.78027,3.79004.78027,3.42188,0,5.54004-.7373,5.56055-.74512.60938-.21973,1.28809.09766,1.51074.70703.22168.61328-.09473,1.29102-.70605,1.51367-.09668.03613-2.45801.88672-6.36523.88672Zm-8.5166-2.70312c1.62012,0,2.92871.41797,4.31445.85938,1.30664.41602,2.65234.84375,4.20215.84375,3.73047,0,5.99902-.81738,6.02148-.82617.0957-.03418.14355-.13867.11035-.23242-.03516-.0918-.13867-.14355-.2334-.10742-.02051.00684-2.25293.80371-5.89844.80371-1.49414,0-2.75293-.40039-4.08594-.8252-1.3584-.43262-2.75684-.87793-4.43066-.87793-1.65723,0-3.02441.43848-4.3457.86328-1.34277.43262-2.60742.83984-4.1709.83984-1.5625,0-2.82715-.40723-4.16602-.83887-1.32812-.42578-2.69434-.86426-4.35059-.86426-1.67188,0-3.07129.44531-4.42383.87598-1.33594.42578-2.59668.82715-4.0918.82715-3.55566,0-5.7998-.76953-5.89355-.80176-.08691-.03711-.20898.02441-.23828.10449-.0293.08105.02734.2041.10742.2334.02441.00879,2.29297.82617,6.02441.82617,1.54785,0,2.89258-.42676,4.19238-.84082,1.39453-.44434,2.70215-.8623,4.32324-.8623,1.60156,0,2.88281.41211,4.23926.84766,1.31055.42188,2.66016.85547,4.27734.85547,1.61621,0,2.96582-.43359,4.27148-.85254,1.3623-.43848,2.64258-.85059,4.24512-.85059Z"/>
  </g>
  <g>
    <path class="cls-1" d="m42.40737,31.17549c-1.62993,0-3.01501-.44112-4.35452-.86761-1.34932-.42981-2.62379-.83567-4.1619-.83567-1.52331,0-2.76817.40037-4.08605.8242-1.34366.43214-2.73324.87909-4.43036.87909s-3.0867-.44695-4.43036-.87909c-1.31788-.42382-2.56274-.8242-4.08605-.8242-1.53811,0-2.81258.40586-4.1619.83567-1.33951.42649-2.72459.86761-4.35452.86761-3.80261,0-6.09888-.82137-6.19486-.8563-.35346-.12891-.5356-.51997-.40669-.87343.12874-.35346.51947-.53577.87277-.40702.04142.0148,2.20395.77413,5.72879.77413,1.41835,0,2.64375-.39022,3.941-.8034,1.38924-.44245,2.82555-.89988,4.57541-.89988,1.73705,0,3.14326.45227,4.50322.88957,1.30092.4185,2.52981.81372,4.01319.81372s2.71228-.39521,4.01319-.81372c1.35996-.4373,2.76617-.88957,4.50322-.88957,1.74986,0,3.18617.45742,4.57541.89988,1.29726.41318,2.52265.8034,3.941.8034,3.54146,0,5.70783-.76648,5.72928-.7743.3538-.12725.74402.05539.8721.40852.12808.3533-.05339.74336-.40653.8721-.09598.03493-2.39225.8563-6.19486.8563Z"/>
    <path class="cls-1" d="m42.40754,31.67505c-1.71191,0-3.13281-.45312-4.50586-.89062-1.31445-.41895-2.55176-.8125-4.01074-.8125-1.44531,0-2.65332.38867-3.93262.7998-1.37891.44434-2.80469.90332-4.58398.90332-1.78027,0-3.20508-.45898-4.58301-.90332-1.28027-.41113-2.48926-.7998-3.93359-.7998-1.45996,0-2.69727.39453-4.00781.81152-1.37695.43848-2.79785.8916-4.50781.8916-3.77734,0-6.10938-.79395-6.36328-.88477-.2998-.10938-.53613-.32617-.66992-.61328-.13281-.28516-.14648-.60645-.03809-.90234.10742-.2959.32422-.5332.61035-.66602s.60449-.14746.90234-.04004c.02051.00781,2.11719.74414,5.55859.74414,1.3457,0,2.53223-.37891,3.78809-.78027,1.42578-.4541,2.90039-.92285,4.72754-.92285,1.81641,0,3.26074.46484,4.65723.91406,1.2666.40625,2.45703.78906,3.85938.78906,1.40332,0,2.5957-.38281,3.85742-.78809,1.39844-.4502,2.8418-.91504,4.65918-.91504,1.8291,0,3.30273.46875,4.72656.92285,1.25781.40137,2.44531.78027,3.79004.78027,3.42188,0,5.54004-.7373,5.56055-.74512.61133-.2168,1.28809.09961,1.51074.70898.22168.61133-.09473,1.29004-.70605,1.5127-.25684.0918-2.58887.88574-6.36523.88574Zm-8.5166-2.70312c1.61426,0,2.92383.41699,4.30957.8584,1.30566.41602,2.65137.84473,4.20703.84473,3.6084,0,5.78906-.74121,6.02637-.82617.09082-.0332.13867-.1377.10547-.23047-.03516-.09473-.13867-.14551-.2334-.10938-.02051.00684-2.25293.80371-5.89844.80371-1.5,0-2.75977-.40234-4.09375-.82715-1.35059-.43066-2.74902-.87598-4.42285-.87598-1.66016,0-3.02734.44043-4.34961.86523-1.34277.43164-2.60645.83789-4.16699.83789-1.55957,0-2.82227-.40625-4.15918-.83594-1.33008-.42676-2.69824-.86719-4.35742-.86719-1.67188,0-3.07129.44531-4.42383.87598-1.33203.4248-2.59082.82715-4.0918.82715-3.63672,0-5.88184-.79785-5.9043-.80566-.07227-.02832-.19824.0293-.22754.1084-.0293.08203.02734.20508.10742.23438.0918.03223,2.35352.8252,6.02441.8252,1.55371,0,2.90039-.42871,4.20312-.84375,1.3877-.44238,2.69727-.85938,4.3125-.85938,1.60156,0,2.88281.41211,4.23926.84766,1.30566.4209,2.6543.85547,4.27734.85547,1.62207,0,2.97168-.43457,4.27734-.85449,1.35645-.43652,2.63672-.84863,4.23926-.84863Z"/>
  </g>
  <g>
    <g>
      <path class="cls-1" d="m25.37454,22.65908c-3.66289,0-6.6428-3.00719-6.6428-6.70352,0-1.10164.27229-2.19763.78727-3.1692l5.25423-9.8649c.11827-.22223.34964-.36103.60131-.36103h0c.25183,0,.48304.13881.60131.36103l5.25306,9.86374c.51597.97174.78843,2.06789.78843,3.17037,0,3.69632-2.97991,6.70352-6.6428,6.70352Zm0-17.96797l-4.65226,8.73465c-.41052.77446-.62792,1.64972-.62792,2.52981,0,2.94498,2.36863,5.34089,5.28018,5.34089s5.28018-2.39591,5.28018-5.34089c0-.88058-.2174-1.75568-.62892-2.53064l-4.65126-8.73382Z"/>
      <path class="cls-1" d="m25.37434,23.15943c-3.93848,0-7.14258-3.23145-7.14258-7.2041,0-1.18262.29199-2.35938.8457-3.40332l5.25391-9.86621c.20801-.38574.60742-.625,1.04297-.625.4375,0,.83691.23926,1.04297.625l5.25293,9.86426c.55371,1.04492.84668,2.22168.84668,3.40527,0,3.97266-3.2041,7.2041-7.14258,7.2041Zm0-20.09863c-.06738,0-.12891.03711-.16113.09668l-5.25293,9.86426c-.47656.89941-.72852,1.91406-.72852,2.93359,0,3.4209,2.75586,6.2041,6.14258,6.2041s6.14258-2.7832,6.14258-6.2041c0-1.02051-.25195-2.03613-.72949-2.93555l-5.25293-9.86328c-.03125-.05957-.09277-.0957-.16016-.0957Zm0,18.73535c-3.1875,0-5.78027-2.62012-5.78027-5.84082,0-.95996.2373-1.91602.68652-2.76367l5.09375-9.56445,5.09277,9.5625c.4502.84766.6875,1.80371.6875,2.76562,0,3.2207-2.59277,5.84082-5.78027,5.84082Zm0-16.04199l-4.21094,7.90723c-.37207.70215-.56934,1.49609-.56934,2.29395,0,2.66895,2.14453,4.84082,4.78027,4.84082s4.78027-2.17188,4.78027-4.84082c0-.79883-.19727-1.59277-.57031-2.2959l-4.20996-7.90527Z"/>
    </g>
    <g>
      <path class="cls-1" d="m25.37454,19.25251c-1.78445,0-3.23624-1.47906-3.23624-3.29695,0-.37625.30506-.68131.68131-.68131s.68131.30506.68131.68131c0,1.06655.8405,1.93432,1.87361,1.93432.37625,0,.68131.30506.68131.68131s-.30506.68131-.68131.68131Z"/>
      <path class="cls-1" d="m25.37434,19.7522c-2.06055,0-3.73633-1.70312-3.73633-3.79688,0-.65137.53027-1.18066,1.18164-1.18066s1.18164.5293,1.18164,1.18066c0,.79102.61621,1.43457,1.37305,1.43457.65137,0,1.18164.53027,1.18164,1.18164s-.53027,1.18066-1.18164,1.18066Zm-2.55469-3.97754c-.10059,0-.18164.08105-.18164.18066,0,1.54199,1.22754,2.79688,2.73633,2.79688.10059,0,.18164-.08105.18164-.18066,0-.10059-.08105-.18164-.18164-.18164-1.30859,0-2.37305-1.0918-2.37305-2.43457,0-.09961-.08105-.18066-.18164-.18066Z"/>
    </g>
  </g>
  <g>
    <path class="cls-1" d="m39.80905,44.02677c-1.78445,0-3.23624-1.62827-3.23624-3.62962,0-.58218.12758-1.16402.36893-1.68232.00566-.01198.01148-.02395.0178-.03576l2.2497-4.17338c.11893-.2204.34914-.35796.59964-.35796s.48088.13739.59981.35779l2.25153,4.17338c.00665.01248.01297.02512.01896.03792.23952.51897.36611,1.09998.36611,1.68033,0,2.00136-1.45178,3.62962-3.23624,3.62962Zm-1.63991-4.71979c-.15286.33517-.2337.71175-.2337,1.09017,0,1.25002.8405,2.267,1.87361,2.267s1.87361-1.01698,1.87361-2.267c0-.37775-.08034-.7545-.23237-1.091l-1.64107-3.04179-1.64008,3.04262Z"/>
    <path class="cls-1" d="m39.80891,44.5271c-2.06055,0-3.73633-1.85254-3.73633-4.12988,0-.6543.14355-1.30859.41602-1.89355l2.28027-4.23535c.41406-.76562,1.66602-.76562,2.08008,0l2.25195,4.17285c.30176.65137.44434,1.30469.44434,1.95605,0,2.27734-1.67578,4.12988-3.73633,4.12988Zm0-9.87891c-.06641,0-.12793.03613-.15918.09473l-2.25,4.17383c-.21582.46191-.32715.97168-.32715,1.48047,0,1.72559,1.22754,3.12988,2.73633,3.12988s2.73633-1.4043,2.73633-3.12988c0-.50781-.11035-1.0166-.32031-1.47168l-2.25684-4.18262c-.03125-.05859-.09277-.09473-.15918-.09473Zm0,8.51562c-1.30859,0-2.37305-1.24121-2.37305-2.7666,0-.45117.09668-.89941.27832-1.29785l.01465-.0293,2.08008-3.85938,2.08203,3.8584c.19629.43359.29199.88184.29199,1.32812,0,1.52539-1.06543,2.7666-2.37402,2.7666Zm-1.19141-3.63477c-.11914.26562-.18164.56543-.18164.86816,0,.97363.61621,1.7666,1.37305,1.7666.75781,0,1.37402-.79297,1.37402-1.7666,0-.30566-.06543-.6123-.18848-.88574l-1.18457-2.19434-1.19238,2.21191Z"/>
  </g>
  <g>
    <path class="cls-1" d="m10.55703,43.92671c-1.78445,0-3.23624-1.62827-3.23624-3.62962,0-.58018.12658-1.16119.36627-1.68033.00599-.01281.01231-.02545.01896-.03792l2.25136-4.17338c.11893-.2204.34914-.35779.59964-.35779h.00017c.2505,0,.48071.13756.59964.35796l2.2497,4.17338c.00615.01181.01214.02362.0178.0356.24135.51797.36893,1.09982.36893,1.68249,0,2.00136-1.45178,3.62962-3.23624,3.62962Zm-1.64107-4.72062c-.1522.33666-.23254.71342-.23254,1.091,0,1.25002.8405,2.267,1.87361,2.267s1.87361-1.01698,1.87361-2.267c0-.37875-.08067-.75517-.2337-1.09l-1.64008-3.04262-1.64091,3.04162Z"/>
    <path class="cls-1" d="m10.55676,44.42704c-2.06055,0-3.73633-1.85254-3.73633-4.12988,0-.65137.14258-1.30469.41211-1.88965l2.28418-4.23926c.41504-.76758,1.6709-.76367,2.08008.00098l2.25,4.17285c.30273.64258.44629,1.29785.44629,1.95508,0,2.27734-1.67578,4.12988-3.73633,4.12988Zm0-9.87891c-.06641,0-.12793.03613-.15918.09473l-2.25098,4.17285c-.21582.46484-.32617.97363-.32617,1.48145,0,1.72559,1.22754,3.12988,2.73633,3.12988s2.73633-1.4043,2.73633-3.12988c0-.51172-.11133-1.02051-.32227-1.4707l-2.25488-4.18359c-.03125-.05859-.0918-.09473-.15918-.09473Zm0,8.51562c-1.30859,0-2.37305-1.24121-2.37305-2.7666,0-.44922.0957-.89746.27734-1.29688l.01465-.03125,2.08105-3.8584,2.08105,3.85938c.19629.43066.29297.87891.29297,1.32715,0,1.52539-1.06543,2.7666-2.37402,2.7666Zm-1.19141-3.63574c-.11914.2666-.18164.56738-.18164.86914,0,.97363.61621,1.7666,1.37305,1.7666.75781,0,1.37402-.79297,1.37402-1.7666,0-.30664-.06543-.61133-.18848-.88281l-1.18555-2.19727-1.19141,2.21094Z"/>
  </g>
  <g>
    <path class="cls-1" d="m25.55615,46.41474c-1.78445,0-3.23624-1.62827-3.23624-3.62962,0-.58218.12758-1.16402.36893-1.68232.00566-.01198.01148-.02395.0178-.03576l2.2497-4.17338c.11893-.2204.34914-.35796.59964-.35796s.48088.13739.59981.35779l2.25153,4.17338c.00665.01248.01297.02512.01896.03792.23952.51897.36611,1.09998.36611,1.68033,0,2.00136-1.45178,3.62962-3.23624,3.62962Zm-1.63991-4.71979c-.15286.33517-.2337.71175-.2337,1.09017,0,1.25002.8405,2.267,1.87361,2.267s1.87361-1.01698,1.87361-2.267c0-.37775-.08034-.7545-.23237-1.091l-1.64107-3.04179-1.64008,3.04262Z"/>
    <path class="cls-1" d="m25.55598,46.91468c-2.06055,0-3.73633-1.85254-3.73633-4.12988,0-.6543.14355-1.30859.41602-1.89258l2.28027-4.23633c.41602-.76562,1.66504-.76465,2.0791-.00098l2.25293,4.1748c.30176.65039.44434,1.30371.44434,1.95508,0,2.27734-1.67578,4.12988-3.73633,4.12988Zm0-9.87891c-.06641,0-.12793.03711-.16016.0957l-2.24902,4.17285c-.21582.46289-.32715.9707-.32715,1.48047,0,1.72559,1.22754,3.12988,2.73633,3.12988s2.73633-1.4043,2.73633-3.12988c0-.50781-.11035-1.0166-.32031-1.46973l-2.25684-4.18457c-.03125-.05762-.09277-.09473-.15918-.09473Zm0,8.5166c-1.30859,0-2.37305-1.24121-2.37305-2.76758,0-.45117.09668-.89941.27832-1.29785l.01465-.0293,2.08008-3.85938,2.08203,3.8584c.19629.43457.29199.88281.29199,1.32812,0,1.52637-1.06543,2.76758-2.37402,2.76758Zm-1.19141-3.63574c-.11914.26562-.18164.56543-.18164.86816,0,.97461.61621,1.76758,1.37305,1.76758.75781,0,1.37402-.79297,1.37402-1.76758,0-.30469-.06543-.61133-.18848-.88574l-1.18457-2.19434-1.19238,2.21191Z"/>
  </g>
  <g>
    <path class="cls-1" d="m38.67728,19.40887c-.2352,0-.42582-.19062-.42582-.42582,0-2.75769-1.39839-4.15608-4.15608-4.15608-.2352,0-.42582-.19062-.42582-.42582s.19062-.42582.42582-.42582c2.75769,0,4.15608-1.39839,4.15608-4.15608,0-.2352.19062-.42582.42582-.42582s.42582.19062.42582.42582c0,2.75769,1.39822,4.15608,4.15591,4.15608.2352,0,.42582.19062.42582.42582s-.19062.42582-.42582.42582c-2.75769,0-4.15591,1.39839-4.15591,4.15608,0,.2352-.19062.42582-.42582.42582Zm-2.18183-5.00772c1.0213.42449,1.75734,1.16053,2.18183,2.18183.42449-1.0213,1.16053-1.75734,2.18183-2.18183-1.0213-.42449-1.75734-1.16053-2.18183-2.18183-.42449,1.0213-1.16053,1.75734-2.18183,2.18183Z"/>
    <path class="cls-1" d="m38.67707,19.90845c-.51074,0-.92578-.41504-.92578-.92578,0-2.49414-1.16211-3.65527-3.65625-3.65527-.51074,0-.92578-.41504-.92578-.92578s.41504-.92676.92578-.92676c2.49414,0,3.65625-1.16113,3.65625-3.65527,0-.51074.41504-.92578.92578-.92578s.92578.41504.92578.92578c0,2.49414,1.16211,3.65527,3.65625,3.65527.51074,0,.92578.41602.92578.92676s-.41504.92578-.92578.92578c-2.49414,0-3.65625,1.16113-3.65625,3.65527,0,.51074-.41504.92578-.92578.92578Zm-.00586-2.03613c.00195.01465.00391.02832.00586.04199.00195-.01562.00488-.03027.00684-.0459l-.00781.01855-.00488-.01465Zm-1.125-3.4707c.44824.30469.82617.68262,1.13086,1.13086.30566-.44824.68359-.82617,1.13184-1.13086-.44824-.30566-.82617-.68359-1.13184-1.13184-.30469.44824-.68262.82617-1.13086,1.13184Zm4.5918-.00879l.02344.00977-.01562.00586c.0166-.00293.03223-.00488.04785-.00684l-.05566-.00879Zm-6.97754.00879c.01562.00195.03027.00391.0459.00684l-.01465-.00586.02246-.00977c-.01758.00293-.03613.00586-.05371.00879Zm3.51562-3.48633l.00781.01855c-.00195-.01562-.00488-.03027-.00684-.0459-.00195.01367-.00391.02734-.00586.04199l.00488-.01465Z"/>
  </g>
  <g>
    <path class="cls-1" d="m11.3524,21.69982c-.2352,0-.42582-.19062-.42582-.42582,0-1.9977-1.01299-3.01069-3.01069-3.01069-.2352,0-.42582-.19062-.42582-.42582s.19062-.42582.42582-.42582c1.9977,0,3.01069-1.01282,3.01069-3.01052,0-.2352.19062-.42582.42582-.42582s.42582.19062.42582.42582c0,1.9977,1.01282,3.01052,3.01052,3.01052.2352,0,.42582.19062.42582.42582s-.19062.42582-.42582.42582c-1.9977,0-3.01052,1.01299-3.01052,3.01069,0,.2352-.19062.42582-.42582.42582Zm-1.40305-3.86233c.62043.30939,1.09366.78261,1.40305,1.40305.30939-.62043.78261-1.09366,1.40305-1.40305-.62043-.30939-1.09366-.78261-1.40305-1.40305-.30939.62043-.78261,1.09366-1.40305,1.40305Z"/>
    <path class="cls-1" d="m11.35285,22.19947c-.51074,0-.92676-.41504-.92676-.92578,0-1.71289-.79785-2.51074-2.50977-2.51074-.51075,0-.92578-.41504-.92578-.92578s.41503-.92578.92578-.92578c1.71191,0,2.50977-.79785,2.50977-2.50977,0-.51074.41602-.92676.92676-.92676s.92578.41602.92578.92676c0,1.71191.79785,2.50977,2.50977,2.50977.51074,0,.92578.41504.92578.92578s-.41504.92578-.92578.92578c-1.71191,0-2.50977.79785-2.50977,2.51074,0,.51074-.41504.92578-.92578.92578Zm-.00586-1.85059c.00195.00977.00391.01855.00488.02832.00195-.00684.00293-.01367.00391-.02051l-.00195.00488-.00684-.0127Zm-.47949-2.51172c.17773.14648.33887.30762.48535.48535.14551-.17773.30664-.33887.48438-.48535-.17773-.14551-.33887-.30664-.48438-.48438-.14648.17773-.30762.33887-.48535.48438Zm3.00293-.00293l.00586.00195-.00977.00488c.00781-.00098.01562-.00293.02246-.00391-.00586-.00098-.01172-.00195-.01855-.00293Zm-5.05469.00293c.00684.00098.01465.00293.02246.00391l-.00977-.00488.00586-.00195c-.00684.00098-.0127.00195-.01855.00293Zm2.53613-2.53906c-.00098.00977-.00293.01953-.00488.02832l.00684-.0127.00195.00586c-.00098-.00781-.00195-.01465-.00391-.02148Z"/>
  </g>
</svg>