<svg xmlns="http://www.w3.org/2000/svg" width="32" height="32" viewBox="0 0 32 32" id="collection">
  <g transform="translate(-108 -52)">
    <path fill-rule="evenodd" d="M123 70.999997a1 1 0 00-1 1 1 1 0 001 1h10a1 1 0 001-1 1 1 0 00-1-1zM123 67a1 1 0 00-1 1 1 1 0 001 1h10a1 1 0 001-1 1 1 0 00-1-1zM123 74.999997a1 1 0 00-1 1 1 1 0 001 1h10a1 1 0 001-1 1 1 0 00-1-1z" color="#000" style="-inkscape-stroke:none"></path>
    <path fill-rule="evenodd" d="m 113,54 c -1.6447,0 -3,1.355301 -3,3 v 13.999997 c 0,1.6447 1.3553,3 3,3 h 1 v 1 c 0,1.6447 1.3553,3 3,3 h 1 v 1 c 0,1.6447 1.3553,3 3,3 h 14 c 1.6447,0 3,-1.3553 3,-3 V 65 c 0,-1.644699 -1.3553,-3 -3,-3 h -1 v -1 c 0,-1.644699 -1.3553,-3 -3,-3 h -1 v -1 c 0,-1.644699 -1.3553,-3 -3,-3 z m 0,2 h 14 c 0.57129,0 1,0.428706 1,1 v 1 h -11 c -1.6447,0 -3,1.355301 -3,3 v 10.999997 h -1 c -0.57129,0 -1,-0.4287 -1,-1 V 57 c 0,-0.571294 0.42871,-1 1,-1 z m 4,4 h 14 c 0.57129,0 1,0.428706 1,1 v 1 h -11 c -1.6447,0 -3,1.355301 -3,3 v 10.999997 h -1 c -0.57129,0 -1,-0.4287 -1,-1 V 61 c 0,-0.571294 0.42871,-1 1,-1 z m 4,4 c 4.66667,0 9.33333,0 14,0 0.5713,0 1,0.428704 1,1 v 13.999997 c 0,0.5713 -0.4287,1 -1,1 h -14 c -0.5713,0 -1,-0.4287 -1,-1 0,-4.66666 0,-9.33333 0,-13.999997 0,-0.571296 0.4287,-1 1,-1 z" color="#000" style="-inkscape-stroke:none"></path>
  </g>
</svg>
