<svg xmlns:xlink="http://www.w3.org/1999/xlink"  xmlns="http://www.w3.org/2000/svg" id="Layer_1" data-name="Layer 1" viewBox="0 0 453.54 148.89"><defs><style>.cls-4{fill:#222b6a}.cls-5{fill:#58595b}</style></defs><path d="M322.6 50.55h5.6c1.74 0 3.12-.91 4.17-2.73.52-.95.78-1.91.78-2.86 0-1.95-.87-3.41-2.6-4.36-.78-.43-1.58-.65-2.41-.65-1.65 0-2.97.67-3.97 2.02-.09.09-.15.17-.2.26l-10.87-3.19c1.65-3.6 4.47-6.2 8.46-7.81 2.13-.82 4.36-1.24 6.7-1.24 4.56 0 8.46 1.58 11.71 4.75 2.95 2.95 4.43 6.4 4.43 10.35-.04 3.82-1.56 6.96-4.56 9.44q5.595 3.705 6.12 10.41c.04.43.06.85.06 1.24 0 4.77-1.89 8.83-5.66 12.17-3.47 3.04-7.51 4.56-12.11 4.56q-8.46 0-13.8-5.73c-.74-.82-1.39-1.69-1.95-2.6l9.89-5.14c1.39 2.3 3.3 3.49 5.73 3.58 2.39 0 4.23-1 5.53-2.99.74-1.17 1.11-2.41 1.11-3.71 0-2.47-.91-4.43-2.73-5.86-1.09-.87-2.28-1.3-3.58-1.3h-5.86v-8.59ZM386.25 66.24c0 6.12-2.34 10.76-7.03 13.93-3.08 2.08-6.62 3.12-10.61 3.12-5.21 0-9.48-1.67-12.82-5.01-3.08-3.12-4.62-7.14-4.62-12.04v-19.2c0-6.12 2.32-10.76 6.96-13.93 3.04-2.08 6.55-3.12 10.54-3.12 4.77 0 8.89 1.37 12.37 4.1 1.17.91 2.15 1.93 2.93 3.06l-9.63 4.95c-1.52-1.26-3.43-1.97-5.73-2.15q-4.425 0-6.18 3.9c-.43 1-.65 2.06-.65 3.19v3.38c2.34-.82 4.64-1.24 6.9-1.24 5.16 0 9.44 1.63 12.82 4.88 3.17 3.17 4.75 7.22 4.75 12.17Zm-17.57 7.16q4.425 0 6.12-3.9c.43-1 .65-2.06.65-3.19 0-2.73-1-4.75-2.99-6.05q-1.695-1.11-3.84-1.11c-2.99 0-5.06 1.3-6.18 3.9-.43 1-.65 2.04-.65 3.12 0 2.65.98 4.66 2.93 6.05 1.17.78 2.49 1.17 3.97 1.17ZM426.48 47.04v19.2c0 6.12-2.34 10.76-7.03 13.93-3.08 2.08-6.62 3.12-10.61 3.12-5.16 0-9.44-1.63-12.82-4.88-3.21-3.17-4.82-7.22-4.82-12.17v-19.2c0-6.07 2.34-10.7 7.03-13.86 3.12-2.13 6.68-3.19 10.67-3.19 5.16 0 9.44 1.63 12.82 4.88 3.17 3.17 4.75 7.22 4.75 12.17Zm-24.67-.33v19.85q0 4.425 3.9 6.18c1 .43 2.06.65 3.19.65 2.65 0 4.62-1 5.92-2.99.69-1.13 1.04-2.41 1.04-3.84V46.71c0-2.99-1.3-5.03-3.91-6.12-1-.43-2.04-.65-3.12-.65-2.69 0-4.69 1-5.99 2.99-.69 1.08-1.04 2.34-1.04 3.77ZM151.7 71.32c-2.3 5.16-6.08 8.64-11.32 10.41-2.3.78-4.77 1.17-7.42 1.17-7.29 0-12.84-2.65-16.66-7.94-2.69-3.78-4.04-8.14-4.04-13.08 0-5.9 1.8-10.87 5.4-14.9 3.86-4.21 8.96-6.31 15.29-6.31 7.03 0 12.39 2.65 16.08 7.94 2.65 3.77 3.97 8.16 3.97 13.15 0 1.61-.11 2.95-.33 4.04h-29.22c1 3.64 3.08 5.99 6.25 7.03 1.04.35 2.13.52 3.25.52 3.95-.04 6.83-1.84 8.66-5.4l10.09 3.38Zm-27.66-15.1h17.83c-1.65-3.73-4.36-5.73-8.14-5.99h-.78c-4.04 0-6.94 1.87-8.72 5.6-.09.17-.15.3-.2.39ZM196.02 71.32c-2.3 5.16-6.08 8.64-11.32 10.41-2.3.78-4.77 1.17-7.42 1.17-7.29 0-12.84-2.65-16.66-7.94-2.69-3.78-4.04-8.14-4.04-13.08 0-5.9 1.8-10.87 5.4-14.9 3.86-4.21 8.96-6.31 15.29-6.31 7.12 0 12.63 2.63 16.53 7.88.82 1.13 1.54 2.34 2.15 3.64l-10.02 3.38c-1.95-3.51-4.84-5.29-8.66-5.34-3.9 0-6.77 1.76-8.59 5.27-1 1.95-1.5 4.06-1.5 6.31 0 3.9 1.24 6.96 3.71 9.18 1.78 1.56 3.9 2.34 6.38 2.34 3.95-.04 6.83-1.84 8.66-5.4l10.09 3.38ZM220.04 40.66c7.2 0 12.73 2.65 16.6 7.94 2.78 3.82 4.17 8.24 4.17 13.28 0 5.9-1.82 10.83-5.47 14.77-3.86 4.17-8.96 6.25-15.29 6.25-7.29 0-12.84-2.65-16.66-7.94-2.69-3.78-4.04-8.14-4.04-13.08 0-5.9 1.8-10.87 5.4-14.9 3.86-4.21 8.96-6.31 15.29-6.31Zm0 9.57c-3.9 0-6.77 1.76-8.59 5.27-1 1.95-1.5 4.06-1.5 6.31 0 3.9 1.24 6.96 3.71 9.18 1.78 1.56 3.9 2.34 6.38 2.34 3.99 0 6.88-1.78 8.66-5.34.95-1.91 1.43-3.97 1.43-6.18 0-3.86-1.21-6.92-3.64-9.18-1.78-1.6-3.93-2.41-6.44-2.41ZM246.14 41.31h10.28v2.47c2.34-2.08 5.12-3.12 8.33-3.12 4.95 0 8.85 2.19 11.71 6.57.13.17.24.33.33.46 2.52-4.64 6.27-6.99 11.26-7.03q7.485 0 11.85 6.51c2.13 3.25 3.19 6.96 3.19 11.13v23.95h-10.61V58.3q0-4.68-2.73-6.96c-.96-.78-2.04-1.17-3.25-1.17-2.86 0-4.88 1.43-6.05 4.3q-.72 1.83-.72 3.84v23.95h-10.54V58.31q0-4.68-2.73-6.96c-1-.78-2.11-1.17-3.32-1.17-2.91 0-4.92 1.45-6.05 4.36-.43 1.22-.65 2.47-.65 3.77v23.95h-10.28V41.32Z" class="cls-4"/><path d="M117.04 108.69V91.83h6.18c1.2 0 2.19.2 2.97.59.79.39 1.37.92 1.76 1.59s.58 1.42.58 2.25q0 1.05-.39 1.77c-.26.48-.6.86-1.03 1.15s-.9.5-1.42.63v.16c.56.03 1.11.21 1.64.54s.98.8 1.33 1.41.53 1.35.53 2.22-.2 1.63-.61 2.32c-.4.68-1.03 1.22-1.87 1.62s-1.91.6-3.22.6h-6.46Zm2.54-9.57h3.41c.57 0 1.09-.11 1.54-.33.46-.22.82-.53 1.09-.93s.41-.87.41-1.41c0-.7-.24-1.28-.73-1.75s-1.24-.71-2.25-.71h-3.48v5.13Zm0 7.39h3.67c1.22 0 2.09-.24 2.62-.71s.79-1.06.79-1.77a2.8 2.8 0 0 0-.4-1.47c-.27-.44-.65-.8-1.15-1.06s-1.09-.4-1.77-.4h-3.76v5.4ZM134.26 113.43c-.37 0-.7-.03-1-.09s-.53-.12-.68-.19l.59-2.02c.45.12.85.17 1.2.16.35-.02.66-.15.93-.4s.51-.65.72-1.21l.3-.84-4.63-12.81h2.64l3.2 9.81h.13l3.2-9.81h2.64l-5.21 14.34a5.9 5.9 0 0 1-.92 1.68c-.37.46-.82.8-1.33 1.03s-1.11.35-1.79.35ZM167.58 97.31h-2.57c-.1-.55-.28-1.03-.55-1.45s-.6-.77-.99-1.06a4.3 4.3 0 0 0-1.3-.66 5.1 5.1 0 0 0-1.53-.22c-.97 0-1.84.24-2.61.73s-1.37 1.21-1.81 2.15-.66 2.1-.66 3.46.22 2.53.66 3.48c.44.94 1.05 1.66 1.82 2.14s1.63.73 2.59.73c.53 0 1.04-.07 1.52-.22s.91-.36 1.3-.65.72-.63.99-1.05c.27-.41.46-.89.56-1.43h2.57c-.14.84-.4 1.6-.79 2.29s-.89 1.29-1.51 1.8c-.61.5-1.31.89-2.1 1.16s-1.64.41-2.57.41c-1.46 0-2.76-.35-3.9-1.04s-2.04-1.69-2.7-2.98c-.66-1.3-.98-2.84-.98-4.64s.33-3.35.99-4.64 1.56-2.29 2.7-2.98 2.44-1.04 3.9-1.04c.89 0 1.73.13 2.51.38.78.26 1.48.63 2.1 1.12s1.13 1.09 1.54 1.8.68 1.51.82 2.42ZM174.8 108.97c-.8 0-1.53-.15-2.17-.45-.65-.3-1.16-.73-1.54-1.3s-.56-1.27-.56-2.1c0-.71.14-1.3.41-1.76s.64-.83 1.11-1.09.99-.47 1.56-.61 1.16-.24 1.76-.31c.76-.09 1.37-.16 1.84-.22s.82-.15 1.03-.28.32-.35.32-.64v-.06c0-.72-.2-1.28-.61-1.67-.4-.39-1-.59-1.8-.59s-1.48.18-1.96.55-.8.77-.98 1.21l-2.31-.53c.27-.77.68-1.39 1.21-1.87.53-.47 1.14-.82 1.83-1.04s1.42-.33 2.18-.33c.51 0 1.04.06 1.61.18s1.1.33 1.6.65c.5.31.9.76 1.22 1.34q.48.87.48 2.25v8.4h-2.4v-1.73h-.1c-.16.32-.4.63-.72.94s-.73.56-1.23.77c-.5.2-1.1.3-1.79.3Zm.54-1.98c.68 0 1.26-.13 1.75-.4s.86-.62 1.11-1.06c.26-.44.38-.9.38-1.4v-1.63q-.135.135-.51.24c-.25.07-.53.14-.85.19s-.63.1-.93.14-.55.08-.76.1c-.48.06-.91.16-1.3.3s-.71.35-.94.61-.35.62-.35 1.06c0 .61.23 1.07.68 1.38s1.02.46 1.72.46ZM194.49 99.13l-2.23.4c-.09-.29-.24-.56-.44-.82s-.47-.47-.81-.63-.77-.25-1.28-.25c-.7 0-1.28.16-1.75.47s-.7.71-.7 1.2c0 .42.16.76.47 1.02s.82.47 1.52.63l2.01.46c1.16.27 2.03.68 2.6 1.24s.86 1.29.86 2.18c0 .76-.22 1.43-.66 2.02s-1.04 1.05-1.82 1.39c-.78.33-1.67.5-2.7.5-1.42 0-2.57-.3-3.47-.91-.89-.61-1.44-1.47-1.65-2.59l2.38-.36c.15.62.45 1.09.91 1.4.46.32 1.06.47 1.8.47.81 0 1.45-.17 1.93-.51s.73-.75.73-1.24c0-.4-.15-.73-.44-1s-.74-.47-1.35-.61l-2.14-.47c-1.18-.27-2.05-.7-2.61-1.28-.56-.59-.84-1.33-.84-2.23 0-.75.21-1.4.63-1.96s.99-1 1.73-1.31c.73-.32 1.58-.47 2.53-.47 1.37 0 2.44.3 3.23.89q1.17.885 1.56 2.37M200.6 101.18v7.51h-2.46V91.83h2.43v6.27h.16c.3-.68.75-1.22 1.36-1.62s1.41-.6 2.39-.6q1.305 0 2.28.54c.65.36 1.16.89 1.52 1.59q.54 1.065.54 2.64v8.04h-2.46v-7.75q0-1.395-.72-2.16c-.48-.51-1.14-.77-1.99-.77-.58 0-1.1.12-1.56.37q-.69.375-1.08 1.08c-.39.705-.39 1.05-.39 1.72ZM218.81 96.04v1.98h-7.15v-1.98zm-5.19 12.65V94.58c0-.79.17-1.45.52-1.97s.8-.92 1.38-1.18q.855-.39 1.86-.39a5.8 5.8 0 0 1 2.05.34l-.58 1.99c-.12-.03-.26-.07-.45-.12-.18-.05-.4-.07-.66-.07-.6 0-1.03.15-1.28.44s-.38.72-.38 1.28v13.78h-2.46ZM222.04 108.69V96.04h2.38v2.01h.13c.23-.68.64-1.22 1.22-1.61.59-.39 1.25-.59 1.99-.59.15 0 .34 0 .55.02.21.01.38.02.5.04v2.36c-.1-.03-.27-.06-.53-.09s-.51-.05-.76-.05c-.58 0-1.1.12-1.55.37-.45.24-.81.58-1.07 1.01s-.4.92-.4 1.47v7.72h-2.46ZM236.64 108.94c-1.25 0-2.32-.27-3.21-.8-.9-.54-1.59-1.29-2.08-2.26s-.73-2.12-.73-3.43.24-2.44.73-3.43 1.17-1.76 2.04-2.31 1.9-.83 3.08-.83c.71 0 1.41.12 2.08.35q1.005.36 1.8 1.11c.53.51.95 1.16 1.26 1.96s.46 1.78.46 2.93v.87h-10.05v-1.84h7.64c0-.65-.13-1.22-.4-1.73-.26-.5-.63-.9-1.11-1.19-.47-.29-1.03-.44-1.67-.44-.69 0-1.29.17-1.81.51-.51.34-.91.78-1.19 1.32s-.42 1.13-.42 1.76v1.44c0 .85.15 1.56.45 2.16q.45.885 1.26 1.35c.54.31 1.17.47 1.89.47.47 0 .89-.07 1.28-.2.38-.13.72-.34 1-.61s.5-.6.64-1l2.33.42a4.2 4.2 0 0 1-1 1.8c-.48.51-1.08.91-1.8 1.19s-1.54.42-2.47.42ZM250.95 108.94c-1.25 0-2.32-.27-3.21-.8-.9-.54-1.59-1.29-2.08-2.26s-.73-2.12-.73-3.43.24-2.44.73-3.43 1.17-1.76 2.04-2.31 1.9-.83 3.08-.83c.71 0 1.41.12 2.08.35q1.005.36 1.8 1.11c.53.51.95 1.16 1.26 1.96s.46 1.78.46 2.93v.87h-10.05v-1.84h7.64c0-.65-.13-1.22-.4-1.73-.26-.5-.63-.9-1.11-1.19-.47-.29-1.03-.44-1.67-.44-.69 0-1.29.17-1.81.51-.51.34-.91.78-1.19 1.32s-.42 1.13-.42 1.76v1.44c0 .85.15 1.56.45 2.16q.45.885 1.26 1.35c.54.31 1.17.47 1.89.47.47 0 .89-.07 1.28-.2.38-.13.72-.34 1-.61s.5-.6.64-1l2.33.42a4.2 4.2 0 0 1-1 1.8c-.48.51-1.08.91-1.8 1.19s-1.54.42-2.47.42ZM266.85 108.69V91.83h6.01c1.31 0 2.4.24 3.26.72s1.51 1.13 1.94 1.96.64 1.76.64 2.79-.22 1.97-.65 2.8-1.08 1.48-1.94 1.96-1.95.72-3.26.72h-4.13v-2.16h3.9c.83 0 1.5-.14 2.02-.43s.89-.68 1.14-1.18c.24-.5.36-1.07.36-1.7s-.12-1.2-.36-1.7-.62-.88-1.14-1.16-1.2-.42-2.05-.42h-3.19v14.68h-2.54ZM285.74 108.97c-.8 0-1.53-.15-2.17-.45-.65-.3-1.16-.73-1.54-1.3s-.56-1.27-.56-2.1c0-.71.14-1.3.41-1.76s.64-.83 1.11-1.09.99-.47 1.56-.61 1.16-.24 1.76-.31c.76-.09 1.37-.16 1.84-.22s.82-.15 1.03-.28.32-.35.32-.64v-.06c0-.72-.2-1.28-.61-1.67-.4-.39-1-.59-1.8-.59s-1.48.18-1.96.55-.8.77-.98 1.21l-2.31-.53c.27-.77.68-1.39 1.21-1.87.53-.47 1.14-.82 1.83-1.04s1.42-.33 2.18-.33c.51 0 1.04.06 1.61.18s1.1.33 1.6.65c.5.31.9.76 1.22 1.34q.48.87.48 2.25v8.4h-2.4v-1.73h-.1c-.16.32-.4.63-.72.94s-.73.56-1.23.77c-.5.2-1.1.3-1.79.3Zm.54-1.98c.68 0 1.26-.13 1.75-.4s.86-.62 1.11-1.06c.26-.44.38-.9.38-1.4v-1.63q-.135.135-.51.24c-.25.07-.53.14-.85.19s-.63.1-.93.14-.55.08-.76.1c-.48.06-.91.16-1.3.3s-.71.35-.94.61-.35.62-.35 1.06c0 .61.23 1.07.68 1.38s1.02.46 1.72.46ZM297.05 113.43c-.37 0-.7-.03-1-.09s-.53-.12-.68-.19l.59-2.02c.45.12.85.17 1.2.16.35-.02.66-.15.93-.4s.51-.65.72-1.21l.3-.84-4.63-12.81h2.64l3.2 9.81h.13l3.2-9.81h2.64l-5.21 14.34a5.9 5.9 0 0 1-.92 1.68c-.37.46-.82.8-1.33 1.03s-1.11.35-1.79.35ZM309.32 108.69V96.04h2.36v2.06h.16c.26-.7.69-1.24 1.29-1.63s1.31-.59 2.15-.59 1.55.2 2.13.59c.57.39 1 .94 1.27 1.63h.13c.3-.68.78-1.21 1.44-1.62.66-.4 1.44-.61 2.36-.61 1.15 0 2.08.36 2.81 1.08s1.09 1.8 1.09 3.25v8.48h-2.46v-8.25c0-.86-.23-1.48-.7-1.86a2.57 2.57 0 0 0-1.67-.58c-.8 0-1.42.25-1.87.74-.44.49-.67 1.12-.67 1.89v8.06h-2.45v-8.41c0-.69-.21-1.24-.64-1.66s-.98-.63-1.67-.63c-.47 0-.9.12-1.29.37-.39.24-.71.58-.95 1.02-.24.43-.36.94-.36 1.51v7.8h-2.46ZM335.95 108.94c-1.25 0-2.32-.27-3.21-.8-.9-.54-1.59-1.29-2.08-2.26s-.73-2.12-.73-3.43.24-2.44.73-3.43 1.17-1.76 2.04-2.31 1.9-.83 3.08-.83c.71 0 1.41.12 2.08.35q1.005.36 1.8 1.11c.53.51.95 1.16 1.26 1.96s.46 1.78.46 2.93v.87h-10.05v-1.84h7.64c0-.65-.13-1.22-.4-1.73-.26-.5-.63-.9-1.11-1.19-.47-.29-1.03-.44-1.67-.44-.69 0-1.29.17-1.81.51-.51.34-.91.78-1.19 1.32s-.42 1.13-.42 1.76v1.44c0 .85.15 1.56.45 2.16q.45.885 1.26 1.35c.54.31 1.17.47 1.89.47.47 0 .89-.07 1.28-.2.38-.13.72-.34 1-.61s.5-.6.64-1l2.33.42a4.2 4.2 0 0 1-1 1.8c-.48.51-1.08.91-1.8 1.19s-1.54.42-2.47.42ZM347.28 101.18v7.51h-2.46V96.04h2.36v2.06h.16c.29-.67.75-1.21 1.37-1.61.62-.41 1.41-.61 2.36-.61.86 0 1.62.18 2.26.54.65.36 1.15.89 1.51 1.6s.54 1.58.54 2.63v8.04h-2.46v-7.75c0-.92-.24-1.63-.72-2.15s-1.13-.78-1.97-.78c-.57 0-1.08.12-1.52.37s-.79.61-1.05 1.08c-.25.47-.38 1.05-.38 1.72M365.27 96.04v1.98h-6.91v-1.98zm-5.06-3.03h2.46v11.96c0 .48.07.84.21 1.07.14.24.33.4.56.49s.48.13.75.13c.2 0 .37-.01.52-.04s.26-.05.35-.07l.45 2.03c-.14.05-.35.11-.61.17s-.59.09-.99.09c-.65.01-1.25-.1-1.81-.35-.56-.24-1.01-.61-1.36-1.12s-.52-1.14-.52-1.9V93ZM377.94 99.13l-2.23.4c-.09-.29-.24-.56-.44-.82s-.47-.47-.81-.63-.77-.25-1.28-.25c-.7 0-1.28.16-1.75.47s-.7.71-.7 1.2c0 .42.16.76.47 1.02s.82.47 1.52.63l2.01.46c1.16.27 2.03.68 2.6 1.24s.86 1.29.86 2.18c0 .76-.22 1.43-.66 2.02s-1.04 1.05-1.82 1.39c-.78.33-1.67.5-2.7.5-1.42 0-2.57-.3-3.47-.91-.89-.61-1.44-1.47-1.65-2.59l2.38-.36c.15.62.45 1.09.91 1.4.46.32 1.06.47 1.8.47.81 0 1.45-.17 1.93-.51s.73-.75.73-1.24c0-.4-.15-.73-.44-1s-.74-.47-1.35-.61l-2.14-.47c-1.18-.27-2.05-.7-2.61-1.28-.56-.59-.84-1.33-.84-2.23 0-.75.21-1.4.63-1.96s.99-1 1.73-1.31c.73-.32 1.58-.47 2.53-.47 1.37 0 2.44.3 3.23.89q1.17.885 1.56 2.37" class="cls-5"/><path d="M74.79 58.35a5.68 5.68 0 0 0 1.84-4.2V33.97c0-2.58-1.7-4.98-4.22-5.51-1.7-.36-3.56.06-5.12 1.5L32.02 62.38c-.07.05-.14.08-.21.14l-3.06 2.76a5.115 5.115 0 0 0 0 7.58l3.06 2.76c.07.06.14.09.21.14l35.27 32.42c1.56 1.44 3.42 1.86 5.12 1.5 2.52-.53 4.22-2.93 4.22-5.51V83.99c0-1.6-.67-3.12-1.84-4.2l-5.34-4.91c-1.64-1.5-2.41-3.68-2.34-5.83-.07-2.14.7-4.32 2.34-5.83l5.34-4.91Z" style="fill:#ffb200"/><path d="M55.82 90.54a5.68 5.68 0 0 0-1.84 4.2v20.18c0 2.58 1.7 4.98 4.22 5.51 1.7.36 3.56-.06 5.12-1.5l35.27-32.42c.07-.05.14-.08.21-.14l3.06-2.76a5.115 5.115 0 0 0 0-7.58l-3.06-2.76c-.07-.06-.14-.09-.21-.14L63.32 40.71c-1.56-1.44-3.42-1.86-5.12-1.5-2.52.53-4.22 2.93-4.22 5.51V64.9c0 1.6.67 3.12 1.84 4.2l5.34 4.91c1.64 1.5 2.41 3.68 2.34 5.83.07 2.14-.7 4.32-2.34 5.83l-5.34 4.91Z" style="fill:#00b438"/><path d="M74.79 58.35a5.68 5.68 0 0 0 1.84-4.2v-1.23L63.32 40.69c-1.56-1.44-3.42-1.86-5.12-1.5-.63.13-1.21.38-1.72.72l-1.15 1.05a5.86 5.86 0 0 0-1.35 3.73v20.18c0 1.6.67 3.12 1.84 4.2l5.34 4.91c1.64 1.5 2.41 3.68 2.34 5.83.07 2.14-.7 4.32-2.34 5.83l-5.34 4.91a5.68 5.68 0 0 0-1.84 4.2v1.23l13.31 12.23c1.56 1.44 3.42 1.86 5.12 1.5.63-.13 1.21-.38 1.72-.72l1.15-1.05a5.86 5.86 0 0 0 1.35-3.73V84.03c0-1.6-.67-3.12-1.84-4.2l-5.34-4.91c-1.64-1.5-2.41-3.68-2.34-5.83-.07-2.14.7-4.32 2.34-5.83z" style="fill:#00871a"/></svg>