<?xml version="1.0" encoding="UTF-8"?>
<svg id="Layer_1" data-name="Layer 1" xmlns="http://www.w3.org/2000/svg" viewBox="0 0 50 50">
  <defs>
    <style>
      .cls-1 {
        fill: #464646;
        stroke-width: 0px;
      }
    </style>
  </defs>
  <g>
    <path class="cls-1" d="m40.42764,32.63673c-.00063,2.76999.00348,5.53998-.00153,8.30995-.00899,4.97452-2.94115,8.12237-7.93973,8.27565-4.10159.12577-8.21359.13282-12.31463-.00133-4.85938-.15895-7.67369-3.21389-7.87009-8.03052-.24386-5.98072-.11028-11.956.02556-17.93354.07685-3.38193,1.75161-5.69293,4.812-6.99676.78916-.33621,1.18952-.72202,1.17471-1.61817-.02906-1.75764-.24525-3.53386,1.30219-4.96563.52761-.48818.18097-1.52408.18328-2.30884.0139-4.72832.34942-5.07423,5.03725-5.07304,1.48389.00038,2.96964-.03865,4.45121.02184,1.8994.07755,2.79281,1.01462,2.8422,2.88509.0235.88976.03471,1.78174-.00046,2.67065-.04026,1.01742.08811,1.88978.90596,2.67673.93029.89514.82427,2.18913.76262,3.37087-.06152,1.17936.25439,1.84665,1.50947,2.27987,3.33749,1.15203,5.09852,3.81715,5.11736,7.38525.01592,3.01723.00328,6.03462.00264,9.05193Zm-14.10129,15.07126c2.17663,0,4.3539.03349,6.52974-.00798,3.13476-.05975,5.48543-2.02786,5.95819-5.14157.40158-2.64488-.09244-5.32721.08603-7.98737.11526-1.71792.03172-3.25349-2.00419-3.83277-.26108-.07429-.46879-.35418-.68857-.55284-2.09884-1.89711-2.73093-1.88597-4.84263.09315-1.77607,1.66455-3.7949,1.66458-5.53233.00006-2.10644-2.01804-2.68677-2.01381-4.9172.03581-1.7467,1.60509-3.69317,1.6025-5.40876-.01003-.25222-.23707-.4758-.50864-.74692-.72034-.2246-.17537-.52689-.43452-.74688-.39435-.45713.08347-.3013.55366-.30204.86847-.00907,3.85853-.07642,7.71897.02145,11.5751.08926,3.51693,2.70626,6.00408,6.21274,6.06607,2.1265.0376,4.25421.00693,6.38137.00859Zm.14078-30.4703c-2.17408,0-4.3484-.02045-6.52218.00523-2.66035.03142-4.9022,1.55322-5.7732,3.87803-.69842,1.86418-.52519,3.80829-.40686,5.72081.06031.97484,1.24058.99781,1.84463,1.55074,2.36456,2.16446,2.891,2.13697,5.19613.04081,1.71232-1.55709,3.77485-1.52077,5.41959.09542,1.96644,1.93231,2.76884,1.93801,4.80362.03409,1.78985-1.67474,3.69409-1.71228,5.55764-.09473.33466.29048.61373.6446.94528.93916.29545.26248.63992.54688,1.05899.34357.41758-.2026.39375-.63126.38478-1.03877-.0402-1.82693-.04931-3.65467-.10276-5.48115-.10323-3.52822-2.51521-5.93045-6.03176-5.98634-2.12413-.03376-4.24924-.00621-6.3739-.00686Zm-.45288-1.58611c0,.00245,0,.00489,0,.00734,1.33634,0,2.67269.00267,4.00902-.0006q2.25692-.00553,2.24215-2.30686c-.00095-.14848-.01389-.2981-.00034-.44526.11426-1.24126-.49265-1.64843-1.67872-1.62732-2.72131.04843-5.44408.01243-8.16626.01416-2.57758.00164-2.62647.05454-2.57165,2.67919.0031.14844.01243.29716.00691.4453-.03258.87443.38633,1.25326,1.25912,1.24077,1.63295-.02338,3.26648-.00673,4.89977-.00673Zm-4.46183-6.49069c.02246.15604.04493.31208.06739.46812,2.83663,0,5.74146.36562,8.4827-.14576,1.49403-.27871.40551-2.42392.63562-3.70395.14243-.79232.02736-1.75947-1.01634-1.83203-2.6419-.18367-5.29179-.16464-8.0139.14942,1.27997.60845,2.49663,1.17615,2.39904,2.84445-.092,1.57276-1.31689,1.89529-2.55451,2.21975Z"/>
    <path class="cls-1" d="m26.25977,49.69361c-2.06689,0-4.10449-.0332-6.1001-.09766-4.94775-.16211-8.0249-3.29883-8.23242-8.38965-.24609-6.02246-.1084-12.08984.0249-17.95801.07959-3.47559,1.7749-5.94238,5.04004-7.33301.73633-.31348.95752-.60938.94678-1.26758l-.01172-.50195c-.04395-1.63965-.08936-3.33496,1.43408-4.74512.23926-.2207.17822-.76074.11963-1.28223-.0293-.25879-.05762-.5166-.05664-.75195.01465-4.93359.52002-5.44727,5.39746-5.44727h.07031c.40576,0,.81201-.00293,1.21826-.00586,1.04492-.00781,2.12695-.01465,3.19336.02832,2.06934.08398,3.14648,1.17773,3.20117,3.25.02051.79883.03711,1.74414,0,2.69531-.03906.96973.0791,1.70703.79004,2.3916,1.02051.98047.94824,2.33496.88477,3.5293l-.00781.13086c-.05762,1.10742.23633,1.55371,1.25781,1.90625,3.44336,1.18848,5.35059,3.93652,5.37012,7.73828.01172,2.15527.00879,4.31152.00586,6.46777l-.00293,5.55371c.00098,1.78027.00098,3.56152-.00195,5.34277-.00977,5.25684-3.11328,8.49023-8.30273,8.64941-2.09766.06445-4.18262.09668-6.23828.09668ZM20.46484,3.92115c-.25879.69434-.28564,1.77344-.29053,3.44727-.00049.20898.02588.43652.05176.66602.07617.67383.16211,1.4375-.35498,1.91699-1.27441,1.17871-1.23535,2.63379-1.19434,4.1748l.01221.50977c.01953,1.19727-.6626,1.6543-1.40283,1.96875-2.96973,1.26562-4.51221,3.50586-4.58398,6.66113-.1333,5.85547-.27051,11.91113-.02588,17.90918.19287,4.72559,2.9292,7.52148,7.50781,7.6709,3.96582.13086,8.10107.12988,12.29053.00098,4.73535-.14551,7.56738-3.09863,7.57617-7.90137.00293-1.78027.00293-3.56055.00195-5.34082l.00293-5.55469c.00293-2.1543.00586-4.30859-.00586-6.46289-.01758-3.45898-1.74512-5.95605-4.86426-7.0332-1.32617-.45801-1.83691-1.22754-1.76172-2.6543l.00684-.13184c.05762-1.08398.11719-2.20605-.65527-2.94824-.96387-.92871-1.06055-1.97266-1.02051-2.96191.03711-.92969.02051-1.85938,0-2.64648-.04395-1.69727-.78613-2.45117-2.48242-2.51953-1.0459-.04297-2.11914-.03516-3.15625-.02832-.42725.00293-.85449.00391-1.28027.00586h-.03418c-2.75635,0-3.86865.07129-4.31885,1.20508l1.18213-.14941c2.59082-.30078,5.23438-.34961,8.08301-.15137.45801.03125.83008.21484,1.0752.5293.42188.54297.35938,1.3252.28418,1.74316-.06836.37695.00293.8877.07129,1.38184.13965,1.00195.33008,2.37402-1.00684,2.62402-1.97754.36914-4.04883.29199-6.05029.21484-.83594-.03125-1.67188-.0625-2.50195-.0625h-.32471l-.16162-1.12207.32373-.08398c1.36377-.35742,2.20312-.63965,2.27539-1.87891.07861-1.33789-.77002-1.81055-2.16113-2.47168l-1.10645-.52637Zm2.08008,5.34375c.53418.0127,1.06934.03223,1.60498.05273,1.9624.0752,3.99072.14941,5.88428-.20215.54199-.10156.5752-.53516.40234-1.78516-.07715-.55176-.15625-1.12305-.06738-1.61719.09082-.50195.04004-.9209-.1377-1.14941-.11426-.14551-.28906-.22461-.53613-.24219-2.3418-.16309-4.54541-.15527-6.6958.02344.86816.53223,1.56055,1.26855,1.48193,2.61719-.08301,1.41895-.95654,1.97168-1.93652,2.30273Zm7.81836,38.83105c-.67383,0-1.34668-.00293-2.02051-.00684-.67188-.00293-1.34473-.00586-2.0166-.00586h0c-.69873.00293-1.37549.00195-2.06299.00488-1.44043.00488-2.8833.0127-4.32471-.01367-3.7207-.06641-6.48828-2.77148-6.58105-6.43164-.07275-2.85938-.0542-5.76758-.03662-8.5791.00635-1.00195.0127-2.00488.01514-3.00684,0-.05176-.00537-.1084-.01074-.16699-.02246-.25684-.08252-.93945.61963-1.06934.37598-.06543.71289.20508.98877.42383.24121.18848.40576.35645.56982.52637.08545.08887.1709.17676.26025.26074,1.56348,1.46973,3.30225,1.47266,4.89844.00684,2.37061-2.17871,3.18262-2.18359,5.42969-.03027,1.59863,1.53125,3.38184,1.53223,5.0166-.00293,2.25391-2.11328,3.10547-2.12891,5.35059-.09766.06445.05762.12695.12109.19043.18555.11816.12109.25293.25781.34961.28516,2.31641.65918,2.39453,2.44531,2.27539,4.21875-.0752,1.12109-.02734,2.27539.01855,3.39062.0625,1.51562.12695,3.08203-.10742,4.62793-.49414,3.25195-2.97559,5.39551-6.32227,5.45996-.83301.01562-1.66699.02051-2.5.02051Zm-4.03711-.7627c.67383,0,1.34668.00293,2.02051.00684,1.5.00586,3.00098.0127,4.50293-.01465,3.00781-.05762,5.15137-1.90625,5.59375-4.82324.22363-1.47461.16113-3.00391.09961-4.4834-.0459-1.13574-.09473-2.31055-.0166-3.47266.12891-1.92285-.10352-2.9834-1.73242-3.44727-.28711-.08105-.49512-.29297-.67969-.47949-.05176-.05371-.10449-.10742-.15723-.15527-1.95703-1.76953-2.3623-1.76074-4.33496.08789-1.91504,1.79395-4.1748,1.79297-6.04883-.00293-1.95459-1.87207-2.32617-1.86914-4.40381.04199-1.89844,1.74316-4.05713,1.73926-5.91943-.0127-.09814-.0918-.19189-.18945-.28564-.28613-.13965-.14453-.27881-.29004-.43555-.41309-.1665-.13086-.38818-.30664-.4751-.31934-.00195.02734.01074.17578.01855.26465.00732.08203.01367.16113.01367.23438-.00244,1.00293-.00879,2.00684-.01514,3.00977-.01758,2.80566-.03613,5.70703.03662,8.55469.08301,3.29688,2.48633,5.6416,5.84424,5.70117,1.43604.02637,2.87256.01855,4.30859.01367.68945-.00391,1.38428-.00684,2.06592-.00488h0Zm-8.09766-16.94824c-.81006,0-1.62109-.57031-2.87207-1.71582-.16895-.1543-.41699-.26758-.67969-.38672-.54932-.25-1.23291-.56055-1.28613-1.41699l-.02051-.3291c-.11621-1.82617-.23633-3.71387.45068-5.54688.92529-2.46973,3.32764-4.08789,6.11963-4.12207,1.50391-.01758,3.01025-.01367,4.51318-.00879l2.01318.00391,2.03027-.00488c1.4502-.00586,2.90137-.01074,4.34961.01172,3.71875.05859,6.29102,2.61133,6.40137,6.35059.03125,1.07324.04688,2.14648.06348,3.2207.01074.75488.02246,1.50879.03906,2.26367.01074.45508.02441,1.08301-.5957,1.38379-.65918.32227-1.18848-.14844-1.47168-.40039-.16992-.15039-.32715-.31543-.4834-.48145-.14844-.15723-.29688-.31445-.45898-.45508-1.70996-1.48242-3.40918-1.45312-5.05566.08496-2.1748,2.03613-3.21973,2.02734-5.32227-.04004-1.50439-1.47656-3.33691-1.50977-4.90479-.08594-1.22705,1.11621-2.02783,1.6748-2.82959,1.6748Zm4.21045-12.78027c-.83008,0-1.65967.00293-2.48975.0127-2.47998.03027-4.60986,1.45703-5.42627,3.63574-.63037,1.68164-.51562,3.48828-.4043,5.23535l.021.33008c.02246.36816.27539.52148.84717.78125.30469.13867.61963.28125.87598.5166,2.20654,2.01758,2.51367,2.01953,4.69043.03906,1.86816-1.69727,4.1416-1.65527,5.93506.10547,1.83008,1.79883,2.38867,1.80176,4.28516.02832,1.94434-1.81934,4.03906-1.8584,6.05957-.10449.18066.15723.3457.33105.51172.50586.1416.14941.2832.2998.43652.43652.33887.30176.48633.36523.64551.28613.16211-.07812.18457-.22363.1748-.65137-.01758-.79785-.0293-1.55371-.04004-2.30957-.0166-1.07031-.03223-2.1416-.06348-3.21094-.09668-3.31055-2.37305-5.57031-5.66309-5.62207-1.44336-.02246-2.88965-.0166-4.33496-.01172l-2.0332.00488-2.01514-.00391c-.6709-.00195-1.3418-.00391-2.0127-.00391Zm4.91162-1.57031l-2.77344-.01074c-1.15332-.00195-2.30469-.00781-3.45752.00977-.55762.01367-.97656-.12793-1.25879-.41699-.27197-.27832-.3999-.68652-.37988-1.21289.00342-.09473,0-.18945-.00342-.28516l-.00391-.13867c-.02783-1.33008-.04492-2.13281.41064-2.59766.45215-.46191,1.23633-.46289,2.53516-.46387.84082-.00195,1.68652.00293,2.52979.00586,1.87793.00488,3.75488.0127,5.62988-.02051.7959-.00684,1.32812.15332,1.67383.52441.32129.3457.44727.84082.38477,1.5127-.00684.08398-.00293.1709-.00098.25879l.00391.14941c.00781,1.25684.01172,1.88672-.38184,2.28516-.3916.39453-1.00781.39648-2.23438.39941l-2.67383.00098Zm-.96094-.75098l.96094.00098,2.67188-.00098c.92188-.00195,1.53125-.00391,1.70312-.17773.1748-.17676.1709-.80273.16504-1.75195l-.00293-.13086c-.00391-.11719-.00684-.23438.00293-.34863.04199-.4502-.01953-.75586-.1875-.93652-.18652-.20117-.54199-.30273-1.11035-.28418-1.88086.03223-3.7627.02441-5.64648.02051-.8418-.00391-1.68408-.00977-2.52588-.00586-1.09668.00098-1.77979.0127-2.00049.23828-.22363.22852-.2207.89648-.19629,2.05762l.00342.12988c.00391.11328.00732.22559.00293.33691-.01172.31348.04443.53613.16699.66113.12891.13184.3667.19824.71191.19141,1.15576-.01758,2.31299-.01367,3.47021-.00977l1.81055.00977Z"/>
  </g>
  <g>
    <path class="cls-1" d="m11.07687,1.34163c1.95719.66934,4.00548,1.35775,6.04285,2.07711.39344.13892.67181.47078.52294.92776-.18297.56166-.67217.54207-1.10323.40167-1.9616-.63889-3.91638-1.29933-5.86529-1.976-.41894-.14546-.87945-.39414-.76696-.93263.11508-.55089.6114-.55178,1.1697-.49791Z"/>
    <path class="cls-1" d="m16.99561,5.20728c-.17334,0-.36279-.03418-.57227-.10254-1.96387-.63965-3.9209-1.30078-5.87207-1.97852-.99805-.34668-1.10107-.93262-1.01123-1.36328.19482-.92871,1.12549-.83691,1.57324-.79395l.08447.01855,1.45264.49512c1.50879.5127,3.05469,1.03906,4.59424,1.58301.64893.22852.95215.79004.75439,1.39746-.15723.48242-.48242.65332-.72754.71289-.0874.02051-.1792.03125-.27588.03125Zm-6.30566-3.5127c-.36963,0-.39062.10059-.41553.22168-.02344.11133-.0625.29785.52295.50098,1.94629.67578,3.89844,1.33691,5.8584,1.97461.23486.07715.36865.07227.44092.05469.04492-.01074.12939-.03125.18945-.21582.08594-.26367-.11084-.39453-.29102-.45801-1.53711-.54297-3.08057-1.06836-4.58594-1.58008l-1.41162-.48145c-.12305-.01074-.22412-.0166-.30762-.0166Z"/>
  </g>
  <g>
    <path class="cls-1" d="m11.16793,11.37805c-.65411.05754-1.00404.00765-1.15006-.37645-.17458-.45924.07022-.79133.47807-.93208,2.04532-.70587,4.0972-1.39323,6.15437-2.06379.40914-.13336.81523-.02366.95748.43901.11757.38242-.09745.70608-.44504.83077-2.0813.74658-4.17222,1.46634-5.99481,2.10255Z"/>
    <path class="cls-1" d="m10.78369,11.77564c-.42822,0-.91162-.10254-1.11621-.6416-.11182-.29395-.10889-.58203.00879-.83398.12402-.26465.37207-.47266.69775-.58496,2.04688-.70703,4.10107-1.39453,6.16016-2.06543.33057-.10938.6582-.09277.92041.04297.24463.12695.42139.34863.51172.6416.16846.54883-.11621,1.09277-.67676,1.29395-1.5498.55566-3.10449,1.09668-4.5498,1.59961l-1.53906.52441c-.12207.01074-.26611.02344-.41699.02344Zm6.18018-3.44727c-.05957,0-.12695.01172-.19678.03418-2.05566.66895-4.10596,1.35645-6.14844,2.06152-.13037.04492-.22607.11523-.2627.19336-.03027.06445-.02588.14941.0127.25.03418.09082.07227.19727.7207.14062l1.40381-.48828c1.44336-.50293,2.99609-1.04297,4.54297-1.59668.06885-.02539.28809-.125.21338-.36816-.04541-.14746-.1167-.18359-.13965-.19629-.04004-.02051-.08984-.03027-.146-.03027Z"/>
  </g>
  <g>
    <path class="cls-1" d="m14.25472,7.11441c-.83593,0-1.67238.01782-2.50757-.00703-.46275-.01377-.93165-.15402-.95966-.71078-.02845-.56559.42513-.76046.89112-.76827,1.67133-.02803,3.34342-.02918,5.01497-.01375.46315.00428.94052.16166.95204.71725.01349.65027-.51345.77473-1.03033.78923-.78629.02205-1.57365.00577-2.36055.00577,0-.00414-.00002-.00828-.00002-.01242Z"/>
    <path class="cls-1" d="m15.65283,7.50806c-.2334,0-.46729-.00195-.70068-.00293l-1.07227-.01367-.36279.00098c-.59424.00391-1.18848.00684-1.78076-.00977-1.14795-.03418-1.30762-.75781-1.32324-1.06738-.01953-.39258.13379-.64355.26562-.78516.22412-.23926.56787-.37012.99365-.37695,1.55322-.02637,3.19678-.03027,5.02441-.01367.81494.00684,1.31006.41211,1.32373,1.08496.01074.5166-.22217,1.13867-1.39453,1.17188-.32422.00879-.64893.01172-.97314.01172Zm-1.02295-.75391l.32666.00098c.54883.00293,1.09961.00684,1.64844-.00879.67383-.01855.66943-.22461.66553-.40625-.00195-.10352-.00684-.3457-.58008-.35059-1.8208-.0166-3.4585-.0127-5.00537.01367-.20898.00391-.37988.05566-.4585.13965-.01807.01855-.07227.07715-.06445.23535.00635.12598.01709.33789.59619.35449.5835.0166,1.16748.01367,1.75439.00977l1.11719-.00293v.01465Z"/>
  </g>
</svg>