<?xml version="1.0" encoding="UTF-8"?>
<svg id="Layer_1" data-name="Layer 1" xmlns="http://www.w3.org/2000/svg" viewBox="0 0 50 50">
  <defs>
    <style>
      .cls-1 {
        fill: #464646;
        stroke-width: 0px;
      }
    </style>
  </defs>
  <path class="cls-1" d="m33.63,44.64c-1.7,0-3.15.02-4.61,0-.82-.02-2.03.28-1.88-1.08.04-.4,1.15-.91,1.81-.98,1.45-.15,2.93-.05,4.54-.05v-5.35c-1.95-.76-3.91-1.49-5.84-2.29-.48-.2-1.02-.49-1.28-.9-.31-.49-.36-1.16-.53-1.75.57.02,1.21-.11,1.71.09,1.62.65,3.12,1.69,4.78,2.09,5.03,1.2,10.21-1.32,12.59-5.89,2.39-4.57,1.45-10.22-2.28-13.76-3.76-3.57-9.39-4.22-13.85-1.59-4.46,2.63-6.6,7.85-5.35,12.89.22.88,1.29,2.26-.41,2.6-1.43.28-1.39-1.3-1.63-2.24-1.85-7.39,2.76-14.92,10.12-16.62,7.51-1.73,14.88,2.96,16.55,10.52,1.62,7.36-3.25,14.73-10.74,16.24-.46.09-.91.21-1.47.34v5.61c1.65,0,3.28-.08,4.89.05.53.04,1.01.65,1.51,1-.49.35-.96.97-1.48,1.02-1.57.14-3.15.05-5.04.05,0,1.24.12,2.4-.05,3.52-.1.67-.57,1.76-1,1.83-1.21.18-1.05-.93-1.06-1.73-.02-1.16,0-2.31,0-3.61Z"/>
  <path class="cls-1" d="m11.85,10.59c-2.51-1.82-5-3.63-7.8-5.67.25,1.68.51,2.94.57,4.21.02.44-.45.91-.7,1.37-.44-.35-1.17-.64-1.26-1.06-.45-2.12-.81-4.27-1-6.42-.04-.5.64-1.42,1.12-1.53,2.11-.48,4.27-.77,6.42-1.01.41-.05.88.48,1.33.74-.37.43-.66,1.1-1.12,1.23-1.17.35-2.41.46-4.14.75,2.76,2.01,5.21,3.79,7.77,5.66.46-.41.88-.78,1.3-1.16,4.77-4.33,11.8-4.79,17.04-1.08.67.47,1.81.92,1.1,2.01-.72,1.11-1.52.23-2.23-.24-7.45-4.99-17.22-.65-18.19,8.21-.53,4.79,1.43,8.65,5.59,11.13,4.23,2.52,8.58,2.34,12.58-.5,3.93-2.79,5.46-6.75,4.69-11.55-.09-.58-.44-1.14-.4-1.7.04-.59.39-1.15.6-1.73.46.36,1.16.62,1.33,1.08,1,2.72,1.07,5.5.25,8.29-2.26,7.67-10.44,11.79-17.91,9.01-7.48-2.79-10.98-11.23-7.68-18.52.22-.48.44-.95.71-1.52Z"/>
</svg>