<svg xmlns="http://www.w3.org/2000/svg" viewBox="0 0 68 68" id="pages">
  <path fill="#f7d0e2" d="M62.69 18.63a2.58 2.58 0 1 0 2.58 2.58 2.58 2.58 0 0 0-2.58-2.58Z"></path>
  <path fill="#e5e6e8" d="M12.35 22.57a20.76 20.76 0 0 0 8.84-9.42l.07-.15C27.51-.59 38 .42 43.71 5.37a19.56 19.56 0 0 1 5.65 7.23c1.83 4 3 14.94 9.37 20.79 11.41 10.39 1.66 34.53-18.22 26.86A27.1 27.1 0 0 1 29.41 52a11.16 11.16 0 0 0-12.06-4.05A11.13 11.13 0 0 1 4.67 43C2.05 38.6.16 29.23 12.35 22.57Z"></path>
  <path fill="#f4d095" d="m15.12 11.53-1.48-3.18 2.69-1.25-1.28-2.75 3.35-1.56.43.93-2.42 1.12 1.28 2.76L15 8.85l1.05 2.25-.93.43z"></path>
  <path fill="#acefef" d="M60.8 9.96h-2.38V7.59H57.4v2.37h-2.38v1.03h2.38v2.38h1.02v-2.38h2.38V9.96zM16.79 57.62h-1.81v-1.81h-.78v1.81h-1.81v.78h1.81v1.81h.78V58.4h1.81v-.78zM8.665 17.922l1.869-3.411.903.495-1.87 3.411z"></path>
  <path fill="#f7d0e2" d="m19.28 59.496 4.702-4.702.728.728-4.702 4.702zM17.315 65.273l8.634-8.634.728.729L18.044 66z"></path>
  <circle cx="31.65" cy="60.21" r="1.51" fill="#d4db7f"></circle>
  <circle cx="61.86" cy="28.47" r="1.51" fill="#acefef"></circle>
  <path fill="#bcbfc1" d="M45.8 50.1h5.9V18.03L43.02 11H22.2v6.9"></path>
  <path fill="#a5a7a8" d="M43.3 10.87h-3.4v8.82a2 2 0 0 0 2 2H52V17.9Z"></path>
  <path fill="#cdd1d4" d="M45.8 57H16.3V17.9h20.82l8.68 7.03V57z"></path>
  <path d="M45.8 58H16.3a1 1 0 0 1-1-1V17.9a1 1 0 0 1 1-1h20.82a1 1 0 0 1 .63.22l8.68 7a1 1 0 0 1 .37.78V57a1 1 0 0 1-1 1Zm-28.5-2h27.5V25.41l-8-6.51H17.3Z"></path>
  <path fill="#cdd1d4" d="M45.8 57H16.3V17.9h20.82l8.68 7.03V57z"></path>
  <path fill="#cdd1d4" d="M45.8 24.93v3.75H33.72V17.9h3.4l8.68 7.03z"></path>
  <path fill="#bcbfc1" d="M37.12 17.9h-3.4v8.82a2 2 0 0 0 2 2H45.8v-3.79Z"></path>
  <path d="M39.9 31.73H22.2a1 1 0 0 1 0-2h17.7a1 1 0 0 1 0 2zm0 4.84H22.2a1 1 0 1 1 0-2h17.7a1 1 0 0 1 0 2zm0 4.84H22.2a1 1 0 0 1 0-2h17.7a1 1 0 1 1 0 2zm0 4.85H22.2a1 1 0 1 1 0-2h17.7a1 1 0 0 1 0 2zm0 4.84H22.2a1 1 0 1 1 0-2h17.7a1 1 0 0 1 0 2z"></path>
  <path d="m52.33 17.25-8.68-7A1 1 0 0 0 43 10H22.2a1 1 0 0 0-1 1v5.9h-4.9a1 1 0 0 0-1 1V57a1 1 0 0 0 1 1h29.5a1 1 0 0 0 1-1v-5.9h4.9a1 1 0 0 0 1-1V18a1 1 0 0 0-.37-.75ZM44 13.1l5 4h-5Zm.8 42.9H17.3V18.9h18.82v6.51a1 1 0 0 0 1 1h7.68Zm-6.68-31.59V20l5.45 4.41ZM50.7 49.1h-3.9V24.93a1 1 0 0 0-.37-.78l-8.68-7a1 1 0 0 0-.63-.22H23.2V12H42v6.14a1 1 0 0 0 1 1h7.7Z"></path>
  <path fill="#fff" d="M24.79 21.38a1 1 0 0 1-1 1h-3.14v2.82a1 1 0 0 1-2 0v-3.82a1 1 0 0 1 1-1h4.14a1 1 0 0 1 1 1zm4.91 0a1 1 0 0 1-1 1h-1.57a1 1 0 0 1 0-2h1.57a1 1 0 0 1 1 1zm1.53-7.24a1 1 0 0 1-1 1H26a1 1 0 0 1 0-2h4.28a1 1 0 0 1 .95 1z"></path>
</svg>
