<?xml version="1.0" standalone="no"?>
<!DOCTYPE svg PUBLIC "-//W3C//DTD SVG 20010904//EN"
 "http://www.w3.org/TR/2001/REC-SVG-20010904/DTD/svg10.dtd">
<svg version="1.0" xmlns="http://www.w3.org/2000/svg"
 width="400.000000pt" height="400.000000pt" viewBox="0 0 400.000000 400.000000"
 preserveAspectRatio="xMidYMid meet">

<g transform="translate(0.000000,400.000000) scale(0.100000,-0.100000)"
fill="#000000" stroke="none">
<path d="M847 2203 c-4 -3 -7 -75 -7 -160 l0 -153 95 0 c88 0 98 2 120 25 34
33 35 97 1 122 -22 17 -23 19 -8 50 34 71 -22 123 -134 123 -33 0 -64 -3 -67
-7z m127 -53 c18 -7 26 -17 26 -34 0 -31 -29 -48 -73 -44 -27 2 -33 8 -35 31
-2 16 -1 35 2 43 6 16 43 18 80 4z m34 -136 c24 -17 29 -43 10 -62 -7 -7 -38
-12 -70 -12 l-58 0 0 38 c0 21 3 42 7 45 12 13 89 7 111 -9z"/>
<path d="M1137 2203 c-4 -3 -7 -75 -7 -160 l0 -153 100 0 c55 0 100 3 100 6 0
3 -5 14 -10 25 -9 16 -22 19 -73 19 l-62 0 -1 40 0 40 63 0 c60 0 63 1 63 25
0 23 -4 24 -62 27 l-63 3 0 40 0 40 70 0 c69 1 70 1 73 28 l3 27 -94 0 c-51 0
-97 -3 -100 -7z"/>
<path d="M1387 2204 c-4 -4 -7 -76 -7 -161 l0 -153 100 0 c98 0 100 1 88 20
-14 21 -20 23 -85 20 l-42 -1 -3 138 c-3 130 -4 138 -23 141 -12 2 -24 0 -28
-4z"/>
<path d="M1620 2050 l0 -160 95 0 c52 0 95 4 95 9 0 18 -28 30 -80 33 l-55 3
-3 138 -3 137 -24 0 -25 0 0 -160z"/>
<path d="M1905 2060 c-38 -83 -71 -156 -73 -161 -2 -5 9 -9 26 -9 27 0 31 6
73 102 l44 101 42 -89 c23 -49 42 -95 42 -101 1 -14 61 -18 61 -4 0 4 -33 77
-72 160 l-73 152 -70 -151z"/>
<path d="M2140 2201 c0 -10 135 -300 144 -308 6 -7 146 283 146 304 0 10 -9
13 -26 11 -21 -3 -32 -18 -71 -107 -43 -95 -48 -102 -57 -80 -65 154 -83 184
-109 187 -15 1 -27 -2 -27 -7z"/>
<path d="M2480 2198 c0 -4 -1 -74 -1 -155 l0 -148 25 -3 26 -3 0 160 0 161
-25 -2 c-14 -1 -25 -6 -25 -10z"/>
<path d="M2577 2203 c-4 -3 -7 -15 -7 -25 0 -15 8 -18 55 -18 l55 0 0 -135 0
-135 25 0 24 0 3 133 3 132 53 3 c48 3 52 5 52 28 l0 24 -128 0 c-71 0 -132
-3 -135 -7z"/>
<path d="M2951 2189 c-5 -13 -38 -86 -74 -162 l-66 -138 31 3 c30 3 35 9 74
96 22 51 43 94 46 97 2 2 23 -41 47 -95 41 -93 45 -100 72 -100 16 0 29 2 29
4 0 5 -141 309 -146 315 -2 2 -8 -7 -13 -20z"/>
<path d="M3096 2189 c-50 -39 -20 -129 43 -129 30 0 71 43 71 75 0 30 -41 75
-68 75 -11 0 -31 -9 -46 -21z m84 -14 c16 -20 16 -61 0 -80 -21 -25 -72 -15
-89 16 -13 24 -13 29 2 53 20 30 67 36 87 11z"/>
<path d="M3110 2136 c0 -20 5 -36 10 -36 6 0 10 5 10 12 0 9 3 9 12 0 19 -19
23 -15 23 21 0 28 -4 32 -27 35 -26 3 -28 1 -28 -32z m40 14 c0 -5 -4 -10 -10
-10 -5 0 -10 5 -10 10 0 6 5 10 10 10 6 0 10 -4 10 -10z"/>
</g>
</svg>
