<?xml version="1.0" standalone="no"?>
<!DOCTYPE svg PUBLIC "-//W3C//DTD SVG 20010904//EN"
 "http://www.w3.org/TR/2001/REC-SVG-20010904/DTD/svg10.dtd">
<svg version="1.0" xmlns="http://www.w3.org/2000/svg"
 width="225.000000pt" height="225.000000pt" viewBox="0 0 225.000000 225.000000"
 preserveAspectRatio="xMidYMid meet">

<g transform="translate(0.000000,225.000000) scale(0.100000,-0.100000)"
fill="#000000" stroke="none">
<path d="M0 1125 l0 -1125 1125 0 1125 0 0 1125 0 1125 -1125 0 -1125 0 0
-1125z m299 144 c47 -16 69 -77 39 -107 -10 -10 -7 -16 10 -28 16 -11 22 -25
22 -53 0 -59 -25 -75 -126 -80 l-84 -3 0 134 c0 74 3 138 7 141 10 11 97 8
132 -4z m281 -14 c0 -24 -3 -25 -60 -25 l-60 0 0 -35 0 -35 55 0 c48 0 55 -2
55 -20 0 -18 -7 -20 -55 -20 l-55 0 0 -35 0 -35 54 0 c52 0 66 -9 66 -41 0 -5
-38 -9 -85 -9 l-85 0 0 140 0 140 85 0 c84 0 85 0 85 -25z m90 -90 l0 -115 50
0 c38 0 52 -4 60 -19 5 -11 10 -22 10 -26 0 -3 -37 -5 -82 -3 l-83 3 -3 124
c-1 69 0 131 2 138 3 7 15 13 26 13 19 0 20 -6 20 -115z m200 0 l0 -115 50 0
c38 0 52 -4 60 -19 5 -11 10 -22 10 -26 0 -3 -37 -5 -82 -3 l-83 3 -3 124 c-1
69 0 131 2 138 3 7 15 13 26 13 19 0 20 -6 20 -115z m452 95 c4 -8 22 -46 40
-85 l31 -70 41 88 c34 72 45 87 63 87 13 0 23 -4 23 -9 0 -21 -124 -271 -130
-264 -11 13 -120 252 -120 264 0 15 41 7 52 -11z m278 -120 l0 -140 -25 0 -25
0 0 133 c0 74 3 137 7 140 3 4 15 7 25 7 17 0 18 -11 18 -140z m268 113 c3
-21 0 -23 -47 -23 l-51 0 0 -115 c0 -108 -1 -115 -20 -115 -19 0 -20 7 -20
115 l0 115 -50 0 c-42 0 -50 3 -50 18 0 10 3 22 7 26 4 3 57 5 117 4 106 -3
111 -4 114 -25z m275 16 c28 -15 37 -28 37 -56 0 -29 -33 -63 -62 -63 -55 0
-81 83 -36 114 27 19 33 19 61 5z m-947 -125 c32 -70 61 -131 62 -135 2 -5 -8
-9 -23 -9 -23 0 -31 9 -62 80 -20 44 -39 80 -43 80 -4 0 -23 -36 -43 -80 -31
-71 -39 -80 -62 -80 -15 0 -25 4 -23 8 19 50 123 262 128 262 4 0 33 -57 66
-126z m818 44 c21 -46 49 -107 62 -135 l24 -53 -30 0 c-17 0 -30 4 -30 9 0 5
-16 44 -36 87 l-35 78 -38 -84 c-33 -75 -41 -85 -66 -88 -20 -3 -26 0 -22 10
24 60 122 258 127 258 4 0 24 -37 44 -82z"/>
<path d="M210 1195 c0 -33 2 -35 33 -35 36 0 57 15 57 41 0 20 -20 29 -61 29
-27 0 -29 -3 -29 -35z"/>
<path d="M210 1084 l0 -35 53 3 c46 3 52 6 55 27 5 30 -12 41 -65 41 -43 0
-43 0 -43 -36z"/>
<path d="M2080 1240 c-22 -42 14 -86 58 -69 25 9 31 56 10 77 -19 19 -56 14
-68 -8z m57 -30 c1 -33 0 -34 -13 -16 -13 18 -14 18 -14 2 0 -9 -4 -14 -10
-11 -11 7 -14 48 -3 59 17 17 38 -1 40 -34z"/>
<path d="M2110 1230 c0 -5 5 -10 11 -10 5 0 7 5 4 10 -3 6 -8 10 -11 10 -2 0
-4 -4 -4 -10z"/>
</g>
</svg>
