<svg xmlns="http://www.w3.org/2000/svg" viewBox="0 0 48 48" id="card-payment">
  <path d="M33.358,12.855v-.262a.5.5,0,1,1,1,0v.262a.5.5,0,0,1-1,0Zm2.3,1.244a.494.494,0,0,0,.353-.146l.186-.186a.5.5,0,0,0-.707-.707l-.186.186a.5.5,0,0,0,.354.853Zm.244,1.3a.5.5,0,0,0,.5.5h.263a.5.5,0,0,0,0-1H36.4A.5.5,0,0,0,35.9,15.4Zm-.412,2.337a.5.5,0,0,0,.707-.707l-.186-.186a.5.5,0,0,0-.707.707Zm-1.63.967a.5.5,0,0,0,.5-.5v-.262a.5.5,0,1,0-1,0V18.2A.5.5,0,0,0,33.858,18.7Zm-2.15-1.86-.186.186a.5.5,0,0,0,.707.707l.186-.186a.5.5,0,0,0-.707-.707Zm-.653-.944h.262a.5.5,0,0,0,0-1h-.262a.5.5,0,0,0,0,1Zm.653-1.943a.5.5,0,0,0,.707-.707l-.186-.186a.5.5,0,1,0-.707.707Zm-7.57,17.513h-.451a.5.5,0,0,0,0,1h.451a.5.5,0,0,0,0-1Zm-.394,2.47-.39-.225a.5.5,0,0,0-.5.866l.39.226a.5.5,0,0,0,.5-.867Zm-1.8,1.553a.5.5,0,1,0-.865.5l.225.39a.5.5,0,0,0,.865-.5Zm-2.611.335a.5.5,0,0,0-.5.5v.45a.5.5,0,0,0,1,0v-.45A.5.5,0,0,0,19.331,35.824ZM17.4,35.307a.5.5,0,0,0-.683.183l-.225.39a.5.5,0,0,0,.183.683.494.494,0,0,0,.25.067.5.5,0,0,0,.433-.25l.225-.39A.5.5,0,0,0,17.4,35.307Zm-2.1-1.594-.39.225a.5.5,0,0,0,.251.933.5.5,0,0,0,.25-.067l.39-.226a.5.5,0,0,0-.5-.865Zm.166-1.746a.5.5,0,0,0-.5-.5h-.451a.5.5,0,1,0,0,1h.451A.5.5,0,0,0,15.473,31.967Zm-.167-1.746a.494.494,0,0,0,.25.067.5.5,0,0,0,.25-.933l-.39-.225a.5.5,0,0,0-.5.866ZM40.684,30.1a.5.5,0,0,1-.692.144l-1.825-1.2a19.073,19.073,0,0,0-5.986,6.512l1.656,1.507a.5.5,0,0,1-.673.74l-1.942-1.768a.5.5,0,0,1-.109-.6c.139-.273.286-.536.435-.794l-1.616-1.209c-2.432-.137-5.012-2.651-5.814-3.941a6.106,6.106,0,0,0-.864-1.011l-.007.02a2.123,2.123,0,0,1-1.9,1.218,2.08,2.08,0,0,1-.858-.188L8.46,24.045a2.1,2.1,0,0,1-1.037-2.776l3.193-7a2.109,2.109,0,0,1,2.622-1.088l2.193-2.428a2.121,2.121,0,0,1,1.474-.683,2.077,2.077,0,0,1,1.479.544L28.2,19.473a2.1,2.1,0,0,1,.664,1.776l1.757.28A3.336,3.336,0,0,1,33,23.191l2.733,4.878,1.24.583c.537-.391.9-.606.944-.635a.5.5,0,0,1,.527.014l2.095,1.375A.5.5,0,0,1,40.684,30.1ZM14.205,13.6l11.223,5.129A2.043,2.043,0,0,1,26.509,19.9a2.086,2.086,0,0,1-.054,1.592l-.693,1.516v0l0,0-.73,1.6,2.57-2.849a1.1,1.1,0,0,0-.075-1.548l-9.816-8.864a1.008,1.008,0,0,0-.764-.281,1.112,1.112,0,0,0-.774.356ZM11.04,15.747,25.059,22.14l.486-1.064a1.094,1.094,0,0,0,.026-.832,1.061,1.061,0,0,0-.557-.605l-12.036-5.5a1.116,1.116,0,0,0-1.454.545ZM22.327,28.118l.124-.372c-.529-.456-1.1-.9-1.627-1.272a1.97,1.97,0,0,1-.837-1.613,1.446,1.446,0,0,1,2.078-1.3l1.917.936.661-1.447L10.625,16.657,8.332,21.686a1.1,1.1,0,0,0,.545,1.45L20.9,28.623A1.087,1.087,0,0,0,22.327,28.118Zm13.76,1.222-.923-.434a.506.506,0,0,1-.223-.209l-2.81-5.016a2.343,2.343,0,0,0-1.671-1.165l-1.953-.311a2.2,2.2,0,0,1-.165.225l-2.627,2.914,2.421,1.182a.5.5,0,1,1-.439.9l-2.966-1.448a.425.425,0,0,1-.043-.021L21.627,24.46a.445.445,0,0,0-.64.4.973.973,0,0,0,.411.795,23.224,23.224,0,0,1,1.952,1.55l.023.022a9.084,9.084,0,0,1,1.595,1.738c.768,1.236,3.143,3.454,5.143,3.475a.5.5,0,0,1,.294.1l1.669,1.249A20.015,20.015,0,0,1,36.087,29.34Z"></path>
</svg>
