<svg xmlns="http://www.w3.org/2000/svg" enable-background="new 0 0 1024 1024" viewBox="0 0 1024 1024" id="emi">
  <rect width="112.02" height="20" x="496.94" y="401.97"></rect>
  <rect width="65.44" height="20" x="496.94" y="470.73"></rect>
  <rect width="190.83" height="20" x="240.9" y="436.35" transform="rotate(-45.001 336.31 446.358)"></rect>
  <path d="M287.33 434c-20.2 0-36.63-16.43-36.63-36.64s16.43-36.64 36.63-36.64 36.64 16.43 36.64 36.64S307.53 434 287.33 434zM287.33 380.73c-9.17 0-16.63 7.46-16.63 16.64S278.15 414 287.33 414c9.17 0 16.64-7.46 16.64-16.64S296.5 380.73 287.33 380.73zM385.3 531.97c-20.2 0-36.64-16.43-36.64-36.64s16.43-36.63 36.64-36.63 36.63 16.43 36.63 36.63S405.5 531.97 385.3 531.97zM385.3 478.7c-9.17 0-16.64 7.46-16.64 16.63 0 9.17 7.46 16.64 16.64 16.64 9.17 0 16.63-7.46 16.63-16.64C401.94 486.17 394.47 478.7 385.3 478.7zM607.77 824.97h-22.18c-21.24 0-38.52-17.28-38.52-38.52h20c0 10.21 8.31 18.52 18.52 18.52h22.18c10.21 0 18.52-8.31 18.52-18.52v-1.58c0-10.21-8.31-18.52-18.52-18.52h-22.18c-21.24 0-38.52-17.28-38.52-38.52v-1.58c0-21.24 17.28-38.52 38.52-38.52h22.18c21.24 0 38.52 17.28 38.52 38.52h-20c0-10.21-8.31-18.52-18.52-18.52h-22.18c-10.21 0-18.52 8.31-18.52 18.52v1.58c0 10.21 8.31 18.52 18.52 18.52h22.18c21.24 0 38.52 17.28 38.52 38.52v1.58C646.29 807.69 629.01 824.97 607.77 824.97z"></path>
  <rect width="20" height="27.01" x="586.68" y="814.97"></rect>
  <rect width="20" height="27.01" x="586.68" y="670.72"></rect>
  <path d="M329.83,901.73h-3.14c-5.52,0-10-4.48-10-10v-17.72c0-5.18,3.96-9.51,9.12-9.96c5.17-0.46,9.82,3.11,10.72,8.22l3.14,17.72
		c0.52,2.91-0.28,5.9-2.18,8.17C335.59,900.43,332.79,901.73,329.83,901.73z"></path>
  <path d="M866.69,901.74H329.83c-4.85,0-9-3.48-9.85-8.26l-3.14-17.73c-0.1-0.58-0.15-1.16-0.15-1.74V620.97c0-5.52,4.48-10,10-10
		h540c5.52,0,10,4.48,10,10v270.77C876.69,897.26,872.21,901.74,866.69,901.74z M338.21,881.74h518.48V630.97h-520v242.16
		L338.21,881.74z"></path>
  <path d="M389.69 620.96c0 34.74-28.26 63-63 63-2.76 0-5-2.23-5-5v-58c0-2.76 2.24-5 5-5h58C387.45 615.96 389.69 618.2 389.69 620.96zM871.69 833.74v58c0 2.76-2.24 5-5 5h-58c-2.76 0-5-2.24-5-5 0-34.74 28.26-63 63-63C869.45 828.74 871.69 830.98 871.69 833.74zM389.69 891.74c0 2.76-2.24 5-5 5h-58c-1.33 0-2.6-.53-3.54-1.46-.93-.94-1.46-2.21-1.46-3.54v-58c0-2.76 2.24-5 5-5C361.43 828.74 389.69 857 389.69 891.74zM871.69 620.96v58c0 2.77-2.24 5-5 5-34.74 0-63-28.26-63-63 0-2.76 2.24-5 5-5h58C869.45 615.96 871.69 618.2 871.69 620.96z"></path>
  <rect width="23.94" height="20" x="777.25" y="746.35"></rect>
  <rect width="23.94" height="20" x="392.19" y="746.35"></rect>
  <path d="M596.69,901.74c-71.41,0-129.5-65.22-129.5-145.39s58.09-145.39,129.5-145.39s129.5,65.22,129.5,145.39
		S668.1,901.74,596.69,901.74z M596.69,630.96c-60.38,0-109.5,56.25-109.5,125.39s49.12,125.39,109.5,125.39
		s109.5-56.25,109.5-125.39S657.07,630.96,596.69,630.96z"></path>
  <path d="M847.69,630.96H455.9c-5.18,0-9.51-3.96-9.96-9.13s3.12-9.82,8.22-10.72l379.91-67.2c2.61-0.46,5.3,0.13,7.47,1.65
		c2.17,1.52,3.65,3.84,4.12,6.45l11.88,67.2c0.51,2.91-0.29,5.9-2.19,8.17C853.45,629.65,850.65,630.96,847.69,630.96z
		 M569.85,610.96h265.92l-8.06-45.61L569.85,610.96z"></path>
  <path d="M806.74,565.43c-1.48,2.56-4.01,4.33-6.92,4.85l-306.27,54.18c-0.59,0.1-1.17,0.15-1.75,0.15c-4.45,0-8.46-2.98-9.65-7.41
		c-1.34-5.01,1.37-10.21,6.24-11.99l225.5-82.04l62.38-22.69c5.2-1.89,10.93,0.79,12.82,5.98l18.39,50.55
		C808.49,559.79,808.22,562.87,806.74,565.43z"></path>
  <path d="M329.83,901.74H183.75c-20.09,0-36.44-16.35-36.44-36.44V236.18c0-20.09,16.35-36.44,36.44-36.44h117.19v20H183.75
		c-9.06,0-16.44,7.38-16.44,16.44V865.3c0,9.07,7.38,16.44,16.44,16.44H317.9l-1.06-5.99c-0.1-0.58-0.15-1.16-0.15-1.74V620.97
		c0-5.52,4.48-10,10-10h128.28l34.24-6.06l218.1-79.35V236.18c0-9.06-7.38-16.44-16.44-16.44H573.68v-20h117.19
		c20.09,0,36.44,16.35,36.44,36.44v296.39c0,4.2-2.63,7.96-6.58,9.4l-189.64,68.99h186.22c5.52,0,10,4.48,10,10
		s-4.48,10.01-10,10.01H336.69v242.16l2.99,16.87c0.52,2.91-0.28,5.9-2.18,8.17C335.59,900.43,332.79,901.74,329.83,901.74z"></path>
  <path d="M592.93,249.74l-19.15-54.91c-2.94-8.43-10.92-14.09-19.84-14.09h-58.36c-2.55-29.91-27.71-53.48-58.27-53.48
		s-55.72,23.57-58.27,53.48h-58.36c-8.92,0-16.9,5.66-19.84,14.09l-19.15,54.91c-2.2,6.29-1.24,13.02,2.62,18.45
		c3.86,5.43,9.89,8.55,16.56,8.55h272.88c6.67,0,12.7-3.12,16.56-8.55C594.17,262.76,595.13,256.03,592.93,249.74z M437.31,168.24
		c9.65,0,17.49,7.85,17.49,17.5c0,9.64-7.84,17.49-17.49,17.49c-9.64,0-17.49-7.85-17.49-17.49
		C419.82,176.09,427.67,168.24,437.31,168.24z"></path>
</svg>
