<svg xmlns:xlink="http://www.w3.org/1999/xlink"  xmlns="http://www.w3.org/2000/svg" width="32" height="32"><path d="M8.5 1021.362c-.545 0-1 .455-1 1v28c0 .546.455 1 1 1h15c.545 0 1-.454 1-1v-28c0-.545-.455-1-1-1zm0 1h15v3h-15zm4.29.998a.5.5 0 0 0-.5.5.5.5 0 0 0 .5.5.5.5 0 0 0 .5-.5.5.5 0 0 0-.5-.5zm1.776 0a.5.5 0 1 0 .051 1h2.766a.5.5 0 1 0 0-1h-2.766a.5.5 0 0 0-.05 0zm-6.066 3h15v19h-15zm7.506 5.27a.509.509 0 0 0-.334.12l-4 3.462a.5.5 0 0 0 .328.879h.5v3H12c-.676-.01-.676 1.01 0 1h8c.676.01.676-1.01 0-1h-.5v-3h.5a.5.5 0 0 0 .326-.88l-4-3.46a.499.499 0 0 0-.32-.121zm-.006 1.16 2.658 2.3H13.34zm0 .799a.5.5 0 1 0 0 1 .5.5 0 0 0 0-1zm-2.5 2.502h1v3h-1zm2 0h1v3h-1zm2 0h1v3h-1zm-9 10.27h15v4h-15zm7.5.5c-.823 0-1.5.677-1.5 1.5 0 .822.677 1.5 1.5 1.5.822 0 1.5-.678 1.5-1.5 0-.823-.678-1.5-1.5-1.5zm0 1c.282 0 .5.217.5.5 0 .281-.218.5-.5.5a.493.493 0 0 1-.5-.5c0-.283.218-.5.5-.5z" color="#000" font-family="sans-serif" overflow="visible" style="line-height:normal;text-indent:0;text-align:start;text-decoration-line:none;text-decoration-style:solid;text-decoration-color:#000;text-transform:none;isolation:auto;mix-blend-mode:normal" transform="translate(0 -1020.362)"/></svg>