<svg xmlns:xlink="http://www.w3.org/1999/xlink"  xmlns="http://www.w3.org/2000/svg" width="50" height="50">
    <path
        d="m40.91 24.586-10-22a.998.998 0 0 0-1.875.153l-2.627 9.717-4.477-9.869a1 1 0 0 0-1.875.149l-12.02 44A.999.999 0 0 0 9 48a1 1 0 0 0 .708-.293l9.828-9.828-2.395 8.86a1.001 1.001 0 0 0 1.674.967l21.895-22c.292-.295.373-.741.2-1.12zM21.254 5.937l8.549 18.846-18.845 18.845L21.254 5.937zm-1.201 37.688 2.321-8.585 9.333-9.333a1 1 0 0 0 .204-1.12l-4.236-9.339.047.013 2.519-9.316 8.564 18.84-18.752 18.84z" />
</svg>