<?xml version="1.0" standalone="no"?>
<!DOCTYPE svg PUBLIC "-//W3C//DTD SVG 20010904//EN"
 "http://www.w3.org/TR/2001/REC-SVG-20010904/DTD/svg10.dtd">
<svg version="1.0" xmlns="http://www.w3.org/2000/svg"
 width="215.000000pt" height="30.000000pt" viewBox="0 0 215.000000 30.000000"
 preserveAspectRatio="xMidYMid meet">

<g transform="translate(0.000000,30.000000) scale(0.100000,-0.100000)"
fill="#000000" stroke="none">
<path d="M0 157 c0 -107 3 -146 13 -150 6 -2 46 -3 87 -1 66 2 77 5 97 29 30
34 29 75 -1 104 -23 22 -24 25 -10 46 17 26 11 66 -14 88 -10 9 -50 18 -94 22
l-78 6 0 -144z m134 77 c9 -8 16 -19 16 -24 0 -20 -34 -40 -66 -40 -33 0 -34
1 -34 40 0 39 1 40 34 40 19 0 42 -7 50 -16z m30 -126 c19 -31 -4 -53 -63 -56
l-51 -3 0 41 0 41 51 -3 c36 -2 55 -8 63 -20z"/>
<path d="M264 285 c-3 -6 -3 -71 -2 -145 l3 -135 88 0 c48 0 87 3 87 6 0 31
-15 39 -71 39 l-59 0 0 40 0 40 60 0 c53 0 60 2 60 20 0 18 -7 20 -60 20 l-60
0 0 40 0 39 68 3 c59 3 67 5 67 23 0 18 -7 20 -89 21 -56 0 -90 -4 -92 -11z"/>
<path d="M494 285 c-3 -6 -3 -71 -2 -145 l3 -134 87 -1 c49 0 88 2 88 5 -1 3
-7 13 -14 23 -10 12 -27 17 -65 17 l-51 0 0 123 c0 118 -1 123 -21 123 -12 0
-23 -5 -25 -11z"/>
<path d="M710 151 l0 -146 85 0 c47 0 85 1 85 3 0 2 -5 12 -10 23 -8 15 -21
19 -60 19 l-49 0 -3 122 c-3 118 -4 121 -25 123 -23 2 -23 1 -23 -144z"/>
<path d="M1180 291 c0 -3 30 -71 67 -149 l67 -144 22 49 c12 26 42 91 67 145
l45 96 -25 5 c-21 4 -27 -1 -43 -37 -10 -22 -29 -66 -43 -96 l-24 -55 -24 55
c-46 108 -63 134 -86 135 -13 1 -23 -1 -23 -4z"/>
<path d="M1486 290 c-2 -3 -3 -68 -2 -144 1 -137 1 -139 24 -141 22 -2 22 -1
22 145 0 141 -1 146 -21 146 -11 0 -22 -3 -23 -6z"/>
<path d="M1603 292 c-25 -2 -33 -8 -33 -23 0 -16 7 -19 50 -19 l50 0 0 -125
c0 -124 0 -125 23 -121 21 3 22 7 25 124 l3 122 50 0 c47 0 50 2 47 23 -3 21
-7 22 -93 22 -49 0 -105 -1 -122 -3z"/>
<path d="M2045 275 c-14 -13 -25 -33 -25 -45 0 -22 41 -70 60 -70 16 0 53 21
62 34 17 24 8 65 -18 85 -34 27 -50 26 -79 -4z m79 -11 c32 -31 8 -84 -38 -84
-29 0 -46 18 -46 50 0 14 5 31 12 38 17 17 54 15 72 -4z"/>
<path d="M2073 263 c-15 -5 -18 -63 -3 -63 6 0 10 5 10 11 0 9 4 9 13 0 11 -9
14 -5 15 18 1 30 -12 42 -35 34z m27 -17 c0 -3 -4 -8 -10 -11 -5 -3 -10 -1
-10 4 0 6 5 11 10 11 6 0 10 -2 10 -4z"/>
<path d="M962 155 c-34 -75 -62 -140 -62 -145 0 -14 36 -12 47 3 5 6 25 47 43
90 19 42 36 77 40 77 3 0 25 -40 47 -90 33 -71 46 -90 62 -90 12 0 21 6 21 13
0 15 -122 277 -130 277 -3 0 -33 -61 -68 -135z"/>
<path d="M1860 158 c-34 -73 -65 -139 -67 -146 -4 -10 2 -13 23 -10 25 3 32
13 68 95 22 51 43 89 47 85 3 -4 23 -46 44 -94 32 -75 42 -88 62 -88 12 0 23
4 23 9 0 12 -127 281 -133 281 -2 0 -32 -60 -67 -132z"/>
</g>
</svg>
